<svg xmlns="http://www.w3.org/2000/svg" xmlns:xlink="http://www.w3.org/1999/xlink" version="1.1" width="1000" height="1000" viewBox="0 0 1000 1000" xml:space="preserve">
<desc>Created with Fabric.js 3.5.0</desc>
<defs>
</defs>
<rect x="0" y="0" width="100%" height="100%" fill="#ffffff"/>
<g transform="matrix(1.1909 0 0 1.1909 500.4621 499.5169)" id="711512">
<g style="" vector-effect="non-scaling-stroke">
		<g transform="matrix(1.5625 0 0 1.5625 0.0016 0.0007)" id="Layer_1">
<path style="stroke: none; stroke-width: 1; stroke-dasharray: none; stroke-linecap: butt; stroke-dashoffset: 0; stroke-linejoin: miter; stroke-miterlimit: 4; is-custom-font: none; font-file-url: none; fill: rgb(0,0,0); fill-rule: nonzero; opacity: 1;" transform=" translate(-256.001, -256.0005)" d="M 330.139 250.563 l -66.37 -94.815 c -1.775 -2.535 -4.673 -4.044 -7.768 -4.044 s -5.993 1.509 -7.768 4.044 l -66.37 94.815 c -2.285 3.265 -2.285 7.61 0 10.875 l 66.37 94.815 c 1.775 2.535 4.673 4.044 7.768 4.044 s 5.993 -1.509 7.768 -4.044 l 66.37 -94.815 C 332.424 258.172 332.424 253.828 330.139 250.563 z M 256 334.281 L 201.204 256 L 256 177.719 L 310.796 256 L 256 334.281 z" stroke-linecap="round"/>
</g>
		<g transform="matrix(1.5625 0 0 1.5625 0 0)" id="Layer_1">
<path style="stroke: none; stroke-width: 1; stroke-dasharray: none; stroke-linecap: butt; stroke-dashoffset: 0; stroke-linejoin: miter; stroke-miterlimit: 4; is-custom-font: none; font-file-url: none; fill: rgb(0,0,0); fill-rule: nonzero; opacity: 1;" transform=" translate(-256, -256)" d="M 256 0 C 114.84 0 0 114.841 0 256 s 114.84 256 256 256 s 256 -114.841 256 -256 S 397.16 0 256 0 z M 461.255 137.544 l -69.917 31.074 c -12.421 -19.169 -28.787 -35.535 -47.956 -47.955 l 31.074 -69.918 C 410.414 71.579 440.421 101.586 461.255 137.544 z M 398.222 256 c 0 78.421 -63.801 142.222 -142.222 142.222 S 113.778 334.421 113.778 256 S 177.579 113.778 256 113.778 S 398.222 177.579 398.222 256 z M 256 18.963 c 36.357 0 70.82 8.236 101.641 22.926 l -30.826 69.356 c -21.389 -10.507 -45.419 -16.43 -70.815 -16.43 c -25.396 0 -49.426 5.924 -70.815 16.43 l -30.826 -69.356 C 185.18 27.199 219.643 18.963 256 18.963 z M 137.544 50.745 l 31.074 69.918 c -19.169 12.42 -35.535 28.786 -47.956 47.955 l -69.917 -31.074 C 71.579 101.586 101.586 71.579 137.544 50.745 z M 18.963 256 c 0 -36.355 8.236 -70.82 22.926 -101.64 l 69.356 30.825 c -10.507 21.389 -16.43 45.42 -16.43 70.815 s 5.924 49.426 16.43 70.815 L 41.889 357.64 C 27.199 326.82 18.963 292.355 18.963 256 z M 50.745 374.456 l 69.917 -31.074 c 12.421 19.169 28.787 35.535 47.956 47.955 l -31.074 69.918 C 101.586 440.421 71.579 410.414 50.745 374.456 z M 256 493.037 c -36.357 0 -70.82 -8.236 -101.641 -22.926 l 30.826 -69.356 c 21.389 10.507 45.419 16.43 70.815 16.43 c 25.396 0 49.426 -5.924 70.815 -16.43 l 30.826 69.356 C 326.82 484.801 292.357 493.037 256 493.037 z M 374.456 461.255 l -31.074 -69.918 c 19.169 -12.42 35.535 -28.786 47.956 -47.955 l 69.917 31.074 C 440.421 410.414 410.414 440.421 374.456 461.255 z M 400.755 326.815 c 10.507 -21.389 16.43 -45.42 16.43 -70.815 s -5.924 -49.426 -16.43 -70.815 l 69.356 -30.825 c 14.69 30.82 22.926 65.285 22.926 101.64 s -8.236 70.82 -22.926 101.64 L 400.755 326.815 z" stroke-linecap="round"/>
</g>
</g>
</g>
</svg>