<svg width="1467" height="112" viewBox="0 0 1467 112" fill="none" xmlns="http://www.w3.org/2000/svg">
<mask id="mask0_98_2116" style="mask-type:alpha" maskUnits="userSpaceOnUse" x="-1" y="0" width="1468" height="112">
<path d="M-1 0H1467V51.7402L1411 111.247H-1V0Z" fill="white"/>
</mask>
<g mask="url(#mask0_98_2116)">
<g opacity="0.2">
<path d="M1227.2 -226.732L1840.29 386.36" stroke="white"/>
<path d="M1212.97 -226.732L1826.06 386.36" stroke="white"/>
<path d="M1198.73 -226.732L1811.82 386.36" stroke="white"/>
<path d="M1184.5 -226.732L1797.59 386.36" stroke="white"/>
<path d="M1170.26 -226.732L1783.36 386.36" stroke="white"/>
<path d="M1156.03 -226.732L1769.12 386.36" stroke="white"/>
<path d="M1141.8 -226.732L1754.89 386.36" stroke="white"/>
<path d="M1127.56 -226.732L1740.65 386.36" stroke="white"/>
<path d="M1113.33 -226.732L1726.42 386.36" stroke="white"/>
<path d="M1099.09 -226.732L1712.18 386.36" stroke="white"/>
<path d="M1084.86 -226.732L1697.95 386.36" stroke="white"/>
<path d="M1070.62 -226.732L1683.72 386.36" stroke="white"/>
<path d="M1056.39 -226.732L1669.48 386.36" stroke="white"/>
<path d="M1042.15 -226.732L1655.25 386.36" stroke="white"/>
<path d="M1027.92 -226.732L1641.01 386.36" stroke="white"/>
<path d="M1013.69 -226.732L1626.78 386.36" stroke="white"/>
<path d="M999.452 -226.732L1612.54 386.36" stroke="white"/>
<path d="M985.218 -226.732L1598.31 386.36" stroke="white"/>
<path d="M970.983 -226.732L1584.08 386.36" stroke="white"/>
<path d="M956.749 -226.732L1569.84 386.36" stroke="white"/>
<path d="M942.515 -226.732L1555.61 386.36" stroke="white"/>
<path d="M928.281 -226.732L1541.37 386.36" stroke="white"/>
<path d="M914.046 -226.732L1527.14 386.36" stroke="white"/>
<path d="M899.812 -226.732L1512.9 386.36" stroke="white"/>
<path d="M885.577 -226.732L1498.67 386.36" stroke="white"/>
<path d="M871.343 -226.732L1484.44 386.36" stroke="white"/>
<path d="M857.109 -226.732L1470.2 386.36" stroke="white"/>
<path d="M842.875 -226.732L1455.97 386.36" stroke="white"/>
<path d="M828.64 -226.732L1441.73 386.36" stroke="white"/>
<path d="M814.406 -226.732L1427.5 386.36" stroke="white"/>
<path d="M800.172 -226.732L1413.26 386.36" stroke="white"/>
<path d="M785.937 -226.732L1399.03 386.36" stroke="white"/>
<path d="M771.703 -226.732L1384.8 386.36" stroke="white"/>
<path d="M757.469 -226.732L1370.56 386.36" stroke="white"/>
<path d="M743.234 -226.732L1356.33 386.36" stroke="white"/>
<path d="M729 -226.732L1342.09 386.36" stroke="white"/>
<path d="M714.766 -226.732L1327.86 386.36" stroke="white"/>
<path d="M700.531 -226.732L1313.62 386.36" stroke="white"/>
<path d="M686.297 -226.732L1299.39 386.36" stroke="white"/>
<path d="M672.063 -226.732L1285.15 386.36" stroke="white"/>
<path d="M657.829 -226.732L1270.92 386.36" stroke="white"/>
<path d="M643.594 -226.732L1256.69 386.36" stroke="white"/>
<path d="M629.36 -226.732L1242.45 386.36" stroke="white"/>
<path d="M615.126 -226.732L1228.22 386.36" stroke="white"/>
<path d="M600.891 -226.732L1213.98 386.36" stroke="white"/>
<path d="M586.657 -226.732L1199.75 386.36" stroke="white"/>
<path d="M572.423 -226.732L1185.51 386.36" stroke="white"/>
<path d="M558.188 -226.732L1171.28 386.36" stroke="white"/>
<path d="M543.954 -226.732L1157.05 386.36" stroke="white"/>
<path d="M529.72 -226.732L1142.81 386.36" stroke="white"/>
<path d="M515.485 -226.732L1128.58 386.36" stroke="white"/>
<path d="M501.251 -226.732L1114.34 386.36" stroke="white"/>
<path d="M487.017 -226.732L1100.11 386.36" stroke="white"/>
<path d="M472.782 -226.732L1085.87 386.36" stroke="white"/>
<path d="M458.548 -226.732L1071.64 386.36" stroke="white"/>
<path d="M444.314 -226.732L1057.41 386.36" stroke="white"/>
<path d="M430.08 -226.732L1043.17 386.36" stroke="white"/>
<path d="M415.845 -226.732L1028.94 386.36" stroke="white"/>
<path d="M401.611 -226.732L1014.7 386.36" stroke="white"/>
<path d="M387.377 -226.732L1000.47 386.36" stroke="white"/>
<path d="M373.142 -226.732L986.234 386.36" stroke="white"/>
<path d="M358.908 -226.732L972 386.36" stroke="white"/>
<path d="M344.674 -226.732L957.766 386.36" stroke="white"/>
<path d="M330.439 -226.732L943.531 386.36" stroke="white"/>
<path d="M316.205 -226.732L929.297 386.36" stroke="white"/>
<path d="M301.971 -226.732L915.063 386.36" stroke="white"/>
<path d="M287.737 -226.732L900.829 386.36" stroke="white"/>
<path d="M273.502 -226.732L886.594 386.36" stroke="white"/>
<path d="M259.268 -226.732L872.36 386.36" stroke="white"/>
<path d="M245.034 -226.732L858.126 386.36" stroke="white"/>
<path d="M230.799 -226.732L843.891 386.36" stroke="white"/>
<path d="M216.565 -226.732L829.657 386.36" stroke="white"/>
<path d="M202.331 -226.732L815.423 386.36" stroke="white"/>
<path d="M188.096 -226.732L801.188 386.36" stroke="white"/>
<path d="M173.862 -226.732L786.954 386.36" stroke="white"/>
<path d="M159.628 -226.732L772.72 386.36" stroke="white"/>
<path d="M145.393 -226.732L758.485 386.36" stroke="white"/>
<path d="M131.159 -226.732L744.251 386.36" stroke="white"/>
<path d="M116.925 -226.732L730.017 386.36" stroke="white"/>
<path d="M102.691 -226.732L715.783 386.36" stroke="white"/>
<path d="M88.4562 -226.732L701.548 386.36" stroke="white"/>
<path d="M74.2219 -226.732L687.314 386.36" stroke="white"/>
<path d="M59.9875 -226.732L673.08 386.36" stroke="white"/>
<path d="M45.7533 -226.732L658.845 386.36" stroke="white"/>
<path d="M31.5189 -226.732L644.611 386.36" stroke="white"/>
<path d="M17.2847 -226.732L630.377 386.36" stroke="white"/>
<path d="M3.05029 -226.732L616.142 386.36" stroke="white"/>
<path d="M-11.184 -226.732L601.908 386.36" stroke="white"/>
<path d="M-25.4183 -226.732L587.674 386.36" stroke="white"/>
<path d="M-39.6526 -226.732L573.439 386.36" stroke="white"/>
<path d="M-53.8868 -226.732L559.205 386.36" stroke="white"/>
<path d="M-68.1212 -226.732L544.971 386.36" stroke="white"/>
<path d="M-82.3555 -226.732L530.737 386.36" stroke="white"/>
<path d="M-96.5898 -226.732L516.502 386.36" stroke="white"/>
<path d="M-110.824 -226.732L502.268 386.36" stroke="white"/>
<path d="M-125.058 -226.732L488.034 386.36" stroke="white"/>
<path d="M-139.293 -226.732L473.799 386.36" stroke="white"/>
<path d="M-153.527 -226.732L459.565 386.36" stroke="white"/>
<path d="M-167.761 -226.732L445.331 386.36" stroke="white"/>
<path d="M-181.996 -226.732L431.096 386.36" stroke="white"/>
<path d="M-196.23 -226.732L416.862 386.36" stroke="white"/>
<path d="M-210.464 -226.732L402.628 386.36" stroke="white"/>
<path d="M-224.699 -226.732L388.393 386.36" stroke="white"/>
<path d="M-238.933 -226.732L374.159 386.36" stroke="white"/>
<path d="M-253.167 -226.732L359.925 386.36" stroke="white"/>
<path d="M-267.401 -226.732L345.691 386.36" stroke="white"/>
<path d="M-281.636 -226.732L331.456 386.36" stroke="white"/>
<path d="M-295.87 -226.732L317.222 386.36" stroke="white"/>
<path d="M-310.104 -226.732L302.988 386.36" stroke="white"/>
<path d="M-324.339 -226.732L288.753 386.36" stroke="white"/>
<path d="M-338.573 -226.732L274.519 386.36" stroke="white"/>
<path d="M-352.807 -226.732L260.285 386.36" stroke="white"/>
<path d="M-367.042 -226.732L246.05 386.36" stroke="white"/>
<path d="M-381.276 -226.732L231.816 386.36" stroke="white"/>
<path d="M-389.092 -219.377L224 393.715" stroke="white"/>
<path d="M-396.908 -212.021L216.184 401.071" stroke="white"/>
<path d="M-404.725 -204.666L208.367 408.426" stroke="white"/>
<path d="M-412.541 -197.311L200.551 415.781" stroke="white"/>
<path d="M-420.358 -189.955L192.734 423.137" stroke="white"/>
<path d="M-428.174 -182.6L184.918 430.492" stroke="white"/>
<path d="M-435.99 -175.244L177.102 437.848" stroke="white"/>
<path d="M-443.807 -167.889L169.285 445.203" stroke="white"/>
<path d="M-451.623 -160.533L161.469 452.559" stroke="white"/>
<path d="M-459.44 -153.178L153.652 459.914" stroke="white"/>
<path d="M-467.256 -145.822L145.836 467.27" stroke="white"/>
<path d="M-475.073 -138.467L138.02 474.625" stroke="white"/>
<path d="M-482.889 -131.111L130.203 481.981" stroke="white"/>
<path d="M-490.705 -123.756L122.387 489.336" stroke="white"/>
<path d="M-498.522 -116.4L114.57 496.692" stroke="white"/>
</g>
</g>
</svg>
