<svg width="194" height="139" viewBox="0 0 194 139" fill="none" xmlns="http://www.w3.org/2000/svg">
<g id="Elements" clip-path="url(#clip0_116_913)">
<path id="Vector" d="M84.7187 95.0439C104.46 87.7359 124.185 73.2184 137.753 57.212C145.447 48.1357 151.383 37.6571 156.442 26.932C159.067 21.3834 161.399 15.7589 163.459 9.98344C164.053 8.30302 165.137 0.886105 166.95 0.541201C173.047 -0.616611 164.016 24.6989 162.839 27.36C157.903 38.6004 152.327 49.7652 144.742 59.475C132.052 75.7896 114.734 91.3082 95.8487 100.008C84.8569 105.071 73.895 110.275 61.8965 112.862C56.849 113.951 51.6919 114.579 46.5409 114.699C42.8865 114.79 39.1548 114.797 35.5144 114.422C32.8244 114.143 29.5116 112.408 26.9313 112.589C28.9085 116.725 34.7053 119.199 37.0787 123.339C39.8955 128.261 35.1592 128.045 31.9136 126.115C26.763 123.036 22.1702 119.132 17.444 115.474C13.406 112.354 7.49059 109.346 10.1929 103.708C12.5615 98.7571 16.9516 94.5921 20.26 90.2934C22.4759 87.4272 25.8135 80.0391 30.1447 80.1776C43.6513 80.5804 21.3527 100.02 20.4229 102.009C22.4687 102.609 24.9672 102.22 27.1241 102.476C30.238 102.838 33.2751 103.637 36.3946 103.98C42.2791 104.625 48.4258 104.654 54.3291 104.122C64.5632 103.209 75.6692 99.9119 84.7253 95.0561C91.8695 92.4117 83.4268 95.7659 84.7253 95.0561L84.7187 95.0439Z" fill="white"/>
</g>
<defs>
<clipPath id="clip0_116_913">
<rect width="190.656" height="53.4378" fill="white" transform="translate(193.515 46.8896) rotate(151.338)"/>
</clipPath>
</defs>
</svg>
