<svg width="24" height="24" viewBox="0 0 24 24" fill="none" xmlns="http://www.w3.org/2000/svg">
<g id="cryptocurrency-color:btc" clip-path="url(#clip0_622_174)">
<g id="Group">
<path id="Vector" d="M12 24C18.6274 24 24 18.6274 24 12C24 5.37258 18.6274 0 12 0C5.37258 0 0 5.37258 0 12C0 18.6274 5.37258 24 12 24Z" fill="#F7931A"/>
<path id="Vector_2" d="M17.3917 10.515C17.6272 8.943 16.4294 8.09775 14.7929 7.53375L15.3239 5.40375L14.0279 5.08125L13.5104 7.155C13.1699 7.0695 12.8204 6.99 12.4717 6.9105L12.9929 4.82325L11.6969 4.5L11.1659 6.62925C10.8839 6.56475 10.6064 6.50175 10.3379 6.43425L10.3394 6.4275L8.55143 5.98125L8.20643 7.36575C8.20643 7.36575 9.16868 7.58625 9.14843 7.59975C9.67343 7.731 9.76793 8.07825 9.75218 8.35425L9.14768 10.7805C9.18368 10.7895 9.23018 10.803 9.28268 10.8232L9.14543 10.7895L8.29793 14.1885C8.23343 14.3475 8.07068 14.5867 7.70318 14.496C7.71668 14.5147 6.76118 14.2612 6.76118 14.2612L6.11768 15.7448L7.80518 16.1655C8.11868 16.2443 8.42618 16.3267 8.72843 16.404L8.19218 18.558L9.48743 18.8805L10.0184 16.7505C10.3724 16.8457 10.7159 16.9342 11.0519 17.0182L10.5224 19.1392L11.8184 19.4618L12.3547 17.3123C14.5657 17.7308 16.2277 17.562 16.9274 15.5625C17.4914 13.953 16.8997 13.0238 15.7364 12.4185C16.5839 12.2235 17.2214 11.6663 17.3917 10.515ZM14.4292 14.6685C14.0294 16.2788 11.3182 15.408 10.4392 15.1898L11.1517 12.336C12.0307 12.5557 14.8484 12.99 14.4292 14.6685ZM14.8304 10.4918C14.4652 11.9565 12.2092 11.2118 11.4779 11.0295L12.1229 8.442C12.8542 8.62425 15.2114 8.964 14.8304 10.4918Z" fill="white"/>
</g>
</g>
<defs>
<clipPath id="clip0_622_174">
<rect width="24" height="24" fill="white"/>
</clipPath>
</defs>
</svg>
