<svg width="18" height="18" viewBox="0 0 18 18" fill="none" xmlns="http://www.w3.org/2000/svg">
<path fill-rule="evenodd" clip-rule="evenodd" d="M16.5 3.16666V2.33332H17.3333V1.49999V0.666656H16.5H15.6666H14.8333V1.49999V2.33332H14H13.1666V3.16666V3.99999H12.3333H11.5V4.83332V5.66666H10.6666H9.83329V6.49999V7.33332L8.99996 7.33332L8.16663 7.33332V6.49999V5.66666H7.33329H6.49996V4.83332V3.99999H5.66663H4.83329V3.16666V2.33332H3.99996H3.16663V1.49999V0.666656H2.33329H1.49996H0.666626V1.49999V2.33332H1.49996V3.16666V3.99999H2.33329H3.16663V4.83332V5.66666H3.99996H4.83329V6.49999V7.33332H5.66663H6.49996V8.16666V8.99999V9.83332V10.6667H5.66663H4.83329V11.5V12.3333H3.99996H3.16663V13.1667V14H2.33329H1.49996V14.8333V15.6667H0.666626V16.5V17.3333H1.49996H2.33329H3.16663V16.5V15.6667H3.99996H4.83329V14.8333V14H5.66663H6.49996V13.1667V12.3333H7.33329H8.16663V11.5V10.6667H8.99996H9.83329V11.5V12.3333H10.6666H11.5V13.1667V14H12.3333H13.1666V14.8333V15.6667H14H14.8333V16.5V17.3333H15.6666H16.5H17.3333V16.5V15.6667H16.5V14.8333V14H15.6666H14.8333V13.1667V12.3333H14H13.1666V11.5V10.6667H12.3333H11.5V9.83332V8.99999V8.16666V7.33332H12.3333H13.1666V6.49999V5.66666H14H14.8333V4.83332V3.99999H15.6666H16.5V3.16666Z" fill="white"/>
</svg>
