<svg width="33" height="33" viewBox="0 0 33 33" fill="none" xmlns="http://www.w3.org/2000/svg">
<path fill-rule="evenodd" clip-rule="evenodd" d="M28.3328 3.16667V4.50001H29.6662V23.1667H28.3328V24.5H24.3328V28.5H22.9995V29.8333H4.33284V28.5H2.99951V9.83334H4.33284V8.5H8.33284V4.50001H9.66618V3.16667H28.3328ZM10.9995 8.5H22.9995V9.83334H24.3328V21.8333H25.6662V20.5H26.9995V7.16667H25.6662V5.83334H12.3328V7.16667H10.9995V8.5ZM20.3328 25.8333H21.6662V12.5H20.3328V11.1667H6.99951V12.5H5.66618V25.8333H6.99951V27.1667H20.3328V25.8333Z" fill="white"/>
<path d="M14.9997 17.8333V13.8333H12.333V17.8333H8.33301V20.5H12.333V24.5H14.9997V20.5H18.9997V17.8333H14.9997Z" fill="white"/>
</svg>
