<svg width="24" height="24" viewBox="0 0 24 24" fill="none" xmlns="http://www.w3.org/2000/svg">
<path fill-rule="evenodd" clip-rule="evenodd" d="M2 4V3H3V2H4V1H15V2H16V3H17V4H18V10.5V13V16H17V17H16V18H15V19H4V18H3V17H2V16H1V4H2ZM6 4V3H13V4H14V5H15V6H16V14H15V15H14V16H13V17H6V16H5V15H4V14H3V6H4V5H5V4H6Z" fill="white"/>
<path d="M9 18H8H6V20H7V21H8V22H9V23H20V22H21V21H22V20H23V17V14.5V8H22V7H21V6H20V5H18V7V8H19V9H20V10H21V18H20V19H19V20H18V21H11V20H10V19H9V18Z" fill="white"/>
<path d="M10.5 9V6H8.5V9H5.5V11H8.5V14H10.5V11H13.5V9H10.5Z" fill="white"/>
</svg>
