<svg width="42" height="42" viewBox="0 0 42 42" fill="none" xmlns="http://www.w3.org/2000/svg">
<path d="M37.4913 2.4707H4.50894C3.96836 2.4707 3.44993 2.68545 3.06769 3.06769C2.68545 3.44993 2.4707 3.96836 2.4707 4.50894V37.4913C2.4707 38.0319 2.68545 38.5503 3.06769 38.9325C3.44993 39.3148 3.96836 39.5295 4.50894 39.5295H22.2601V25.1692H17.4425V19.6104H22.2601V15.4413C22.1603 14.4625 22.2759 13.4737 22.5987 12.5443C22.9215 11.6149 23.4437 10.7673 24.1287 10.0611C24.8138 9.35489 25.645 8.8071 26.5642 8.45614C27.4833 8.10519 28.4681 7.95958 29.4495 8.02953C30.8917 8.02065 32.3332 8.09489 33.7669 8.25188V13.2548H30.8207C28.486 13.2548 28.0413 14.3666 28.0413 15.9786V19.5548H33.6001L32.8775 25.1136H28.0413V39.5295H37.4913C37.759 39.5295 38.024 39.4768 38.2713 39.3744C38.5186 39.2719 38.7433 39.1218 38.9325 38.9325C39.1218 38.7433 39.2719 38.5186 39.3744 38.2713C39.4768 38.024 39.5295 37.759 39.5295 37.4913V4.50894C39.5295 4.24127 39.4768 3.97623 39.3744 3.72894C39.2719 3.48165 39.1218 3.25696 38.9325 3.06769C38.7433 2.87842 38.5186 2.72829 38.2713 2.62585C38.024 2.52342 37.759 2.4707 37.4913 2.4707Z" fill="white"/>
</svg>
