<svg width="122" height="132" viewBox="0 0 122 132" fill="none" xmlns="http://www.w3.org/2000/svg">
<g filter="url(#filter0_di_2741_3549)">
<rect x="1" y="2" width="120" height="130" rx="12" fill="url(#paint0_linear_2741_3549)" shape-rendering="crispEdges"/>
<path fill-rule="evenodd" clip-rule="evenodd" d="M46.2368 20.2629H75.7631V22.9472L78.4474 22.9471V25.6314H78.4474V28.3156L78.4474 25.6314H81.1316L81.1316 28.3156V33.684H83.8158L81.1316 33.684L81.1316 28.3156L83.8158 28.3156L83.8158 30.9998H86.5V68.5788L83.8158 68.5788H81.1316V73.9472H78.4474V76.6314H73.0789V79.3156H48.921V76.6314H43.5528V76.6317L48.921 76.6317V79.3159H43.5526V76.6317L40.8686 76.6317V73.9475H43.5526V73.9472H40.8684V73.9475H38.1842V68.5791H40.8684V68.5788H38.1842L35.5 68.5788V30.9998H38.1842L38.1842 28.3156L40.8684 28.3156L40.8684 25.6314H43.5526L43.5526 28.3156V25.6314H43.5526V22.9471H46.2368V20.2629ZM73.079 25.6314V22.9471H73.0789V25.6314H73.079ZM48.921 25.6314H48.921V22.9472H48.921V25.6314ZM73.079 79.3159H48.9211V82.0001H73.079V79.3159ZM73.079 79.3159V76.6317H78.4474V79.3159L73.079 79.3159ZM81.1316 73.9475L78.4475 73.9475V76.6317H81.1317V73.9475L83.8158 73.9475V68.5791H81.1316V73.9475Z" fill="white" fill-opacity="0.3"/>
<rect x="75.7632" y="39.0524" width="2.68421" height="24.1579" fill="white" fill-opacity="0.15"/>
<rect x="43.5526" y="39.0524" width="2.68421" height="24.1579" fill="white" fill-opacity="0.15"/>
<rect x="73.079" y="65.8945" width="2.68421" height="2.68421" fill="white" fill-opacity="0.15"/>
<rect x="46.2368" y="65.8945" width="2.68421" height="2.68421" fill="white" fill-opacity="0.15"/>
<rect x="46.2368" y="36.3685" width="2.68421" height="29.5264" fill="white" fill-opacity="0.3"/>
<rect x="54.2894" y="36.3685" width="2.68421" height="8.05264" fill="white" fill-opacity="0.3"/>
<rect x="56.9736" y="39.0524" width="2.68421" height="5.36843" fill="white" fill-opacity="0.15"/>
<rect x="54.2894" y="55.1577" width="2.68421" height="10.7369" fill="white" fill-opacity="0.3"/>
<rect x="65.0264" y="55.1577" width="2.68421" height="10.7369" fill="white" fill-opacity="0.3"/>
<rect x="48.921" y="68.5791" width="24.1579" height="2.68421" fill="white" fill-opacity="0.15"/>
<rect x="51.6052" y="30.9998" width="18.7895" height="2.68421" fill="white" fill-opacity="0.15"/>
<rect x="48.921" y="33.684" width="5.36842" height="2.68421" fill="white" fill-opacity="0.3"/>
<rect x="54.2894" y="44.4211" width="10.7368" height="2.68421" fill="white" fill-opacity="0.3"/>
<rect x="67.7106" y="33.684" width="5.36842" height="2.68421" fill="white" fill-opacity="0.3"/>
<rect x="65.0264" y="36.3685" width="2.68421" height="10.7369" fill="white" fill-opacity="0.3"/>
<rect x="48.921" y="65.8945" width="5.36842" height="2.68421" fill="white" fill-opacity="0.3"/>
<rect x="67.7106" y="65.8945" width="5.36842" height="2.68421" fill="white" fill-opacity="0.3"/>
<rect x="56.9736" y="55.1577" width="8.05263" height="2.68421" fill="white" fill-opacity="0.3"/>
<rect x="73.079" y="36.3685" width="2.68421" height="29.5264" fill="white" fill-opacity="0.3"/>
<path d="M32.5563 94.02H35.6763V99.22H41.1963V94.02H44.3163V107H41.1963V101.44H35.6763V107H32.5563V94.02ZM51.847 107.2C48.4204 107.2 46.707 106.153 46.707 104.06V100.58C46.707 99.3667 47.0937 98.4867 47.867 97.94C48.6537 97.3933 49.8604 97.12 51.487 97.12C53.0204 97.12 54.1404 97.3867 54.847 97.92C55.567 98.44 55.927 99.3267 55.927 100.58V102.94H49.647V103.82C49.647 104.38 49.847 104.78 50.247 105.02C50.647 105.26 51.367 105.38 52.407 105.38C53.367 105.38 54.447 105.24 55.647 104.96V106.82C54.4604 107.073 53.1937 107.2 51.847 107.2ZM53.147 101.28V99.88C53.147 99.56 53.0137 99.32 52.747 99.16C52.4937 99 52.0604 98.92 51.447 98.92C50.7404 98.92 50.267 99 50.027 99.16C49.7737 99.3333 49.647 99.5733 49.647 99.88V101.28H53.147ZM60.8989 107.2C59.9922 107.2 59.3122 107.12 58.8589 106.96C58.4189 106.787 58.1056 106.487 57.9189 106.06C57.7456 105.62 57.6589 104.967 57.6589 104.1C57.6589 103.327 57.7522 102.72 57.9389 102.28C58.1389 101.84 58.4522 101.527 58.8789 101.34C59.3189 101.14 59.9189 101.04 60.6789 101.04H63.9589V100.38C63.9589 99.9667 63.8989 99.66 63.7789 99.46C63.6722 99.26 63.4656 99.12 63.1589 99.04C62.8656 98.96 62.4189 98.92 61.8189 98.92C60.9922 98.92 59.8589 99 58.4189 99.16V97.32C59.4722 97.1867 60.7056 97.12 62.1189 97.12C63.3589 97.12 64.3122 97.2133 64.9789 97.4C65.6589 97.5867 66.1456 97.9067 66.4389 98.36C66.7322 98.8133 66.8789 99.4733 66.8789 100.34V107H64.0189V106.12C63.7922 106.507 63.4856 106.78 63.0989 106.94C62.7122 107.113 61.9789 107.2 60.8989 107.2ZM62.0389 105.38C62.6256 105.38 63.0456 105.36 63.2989 105.32C63.4856 105.293 63.6122 105.253 63.6789 105.2C63.7589 105.147 63.8256 105.06 63.8789 104.94C63.9322 104.847 63.9589 104.707 63.9589 104.52V102.64H61.9589C61.5056 102.64 61.1856 102.673 60.9989 102.74C60.8122 102.793 60.6856 102.913 60.6189 103.1C60.5522 103.273 60.5189 103.587 60.5189 104.04C60.5189 104.48 60.5522 104.787 60.6189 104.96C60.6856 105.133 60.8122 105.247 60.9989 105.3C61.1989 105.353 61.5456 105.38 62.0389 105.38ZM73.168 107.2C72.0213 107.2 71.1746 107.12 70.628 106.96C70.0813 106.787 69.7013 106.467 69.488 106C69.2746 105.533 69.168 104.807 69.168 103.82V100.04C69.168 98.9733 69.468 98.22 70.068 97.78C70.6813 97.34 71.668 97.12 73.028 97.12C73.668 97.12 74.168 97.16 74.528 97.24C74.9013 97.3067 75.2013 97.4333 75.428 97.62C75.6546 97.7933 75.888 98.0533 76.128 98.4V93H79.048V107H76.228V105.9C75.988 106.287 75.768 106.56 75.568 106.72C75.3813 106.867 75.1146 106.98 74.768 107.06C74.408 107.153 73.8746 107.2 73.168 107.2ZM73.908 105.38C74.5613 105.38 75.0413 105.347 75.348 105.28C75.6546 105.213 75.8613 105.093 75.968 104.92C76.0746 104.733 76.128 104.46 76.128 104.1V100.2C76.128 99.8667 76.068 99.6133 75.948 99.44C75.8413 99.2533 75.6413 99.12 75.348 99.04C75.068 98.96 74.6413 98.92 74.068 98.92C73.4546 98.92 73.0146 98.96 72.748 99.04C72.4813 99.1067 72.3013 99.2333 72.208 99.42C72.128 99.5933 72.088 99.8867 72.088 100.3V104C72.088 104.373 72.128 104.66 72.208 104.86C72.3013 105.047 72.4746 105.18 72.728 105.26C72.9813 105.34 73.3746 105.38 73.908 105.38ZM85.2359 107.2C84.1959 107.2 82.9226 107.1 81.4159 106.9V104.96C83.2693 105.24 84.5559 105.38 85.2759 105.38C85.8893 105.38 86.3426 105.32 86.6359 105.2C86.9293 105.08 87.0759 104.86 87.0759 104.54V103.94C87.0759 103.607 86.9826 103.373 86.7959 103.24C86.6093 103.093 86.2426 103.02 85.6959 103.02H84.4359C83.4093 103.02 82.6159 102.82 82.0559 102.42C81.4959 102.007 81.2159 101.407 81.2159 100.62V99.44C81.2159 98.6 81.6159 98.0067 82.4159 97.66C83.2159 97.3 84.4226 97.12 86.0359 97.12C86.6759 97.12 87.8226 97.18 89.4759 97.3V99.16C87.3959 99 86.2226 98.92 85.9559 98.92C85.1693 98.92 84.6559 98.9733 84.4159 99.08C84.2026 99.2 84.0959 99.42 84.0959 99.74V100.26C84.0959 100.433 84.1826 100.587 84.3559 100.72C84.5293 100.84 84.7826 100.9 85.1159 100.9H86.3959C88.7693 100.9 89.9559 101.673 89.9559 103.22V104.44C89.9559 104.907 89.8693 105.313 89.6959 105.66C89.5226 106.007 89.2959 106.28 89.0159 106.48C88.7493 106.667 88.4026 106.813 87.9759 106.92C87.5626 107.027 87.1293 107.1 86.6759 107.14C86.2626 107.18 85.7826 107.2 85.2359 107.2Z" fill="white" fill-opacity="0.3"/>
<rect x="2.5" y="3.5" width="117" height="127" rx="10.5" stroke="black" stroke-width="3" shape-rendering="crispEdges"/>
</g>
<defs>
<filter id="filter0_di_2741_3549" x="0" y="0" width="122" height="132" filterUnits="userSpaceOnUse" color-interpolation-filters="sRGB">
<feFlood flood-opacity="0" result="BackgroundImageFix"/>
<feColorMatrix in="SourceAlpha" type="matrix" values="0 0 0 0 0 0 0 0 0 0 0 0 0 0 0 0 0 0 127 0" result="hardAlpha"/>
<feOffset dy="-1"/>
<feGaussianBlur stdDeviation="0.5"/>
<feComposite in2="hardAlpha" operator="out"/>
<feColorMatrix type="matrix" values="0 0 0 0 1 0 0 0 0 1 0 0 0 0 1 0 0 0 0.05 0"/>
<feBlend mode="normal" in2="BackgroundImageFix" result="effect1_dropShadow_2741_3549"/>
<feBlend mode="normal" in="SourceGraphic" in2="effect1_dropShadow_2741_3549" result="shape"/>
<feColorMatrix in="SourceAlpha" type="matrix" values="0 0 0 0 0 0 0 0 0 0 0 0 0 0 0 0 0 0 127 0" result="hardAlpha"/>
<feMorphology radius="3" operator="erode" in="SourceAlpha" result="effect2_innerShadow_2741_3549"/>
<feOffset dy="-1"/>
<feGaussianBlur stdDeviation="0.5"/>
<feComposite in2="hardAlpha" operator="arithmetic" k2="-1" k3="1"/>
<feColorMatrix type="matrix" values="0 0 0 0 0 0 0 0 0 0 0 0 0 0 0 0 0 0 0.4 0"/>
<feBlend mode="normal" in2="shape" result="effect2_innerShadow_2741_3549"/>
</filter>
<linearGradient id="paint0_linear_2741_3549" x1="61" y1="2" x2="61" y2="132" gradientUnits="userSpaceOnUse">
<stop stop-color="#101729"/>
<stop offset="1" stop-color="#0B101D"/>
</linearGradient>
</defs>
</svg>
