<svg width="43" height="42" viewBox="0 0 43 42" fill="none" xmlns="http://www.w3.org/2000/svg">
<g id="ri:instagram-fill">
<path id="Vector" d="M22.9629 2.47298C24.315 2.46779 25.6672 2.48138 27.0189 2.51375L27.3783 2.52672C27.7934 2.54154 28.2029 2.56007 28.6976 2.5823C30.669 2.67495 32.0142 2.98623 33.1945 3.44389C34.4174 3.91452 35.4476 4.55191 36.4778 5.58211C37.4198 6.50782 38.1488 7.62759 38.6142 8.86356C39.0719 10.0438 39.3831 11.3909 39.4758 13.3623C39.498 13.8552 39.5165 14.2666 39.5314 14.6816L39.5425 15.0411C39.5754 16.3922 39.5896 17.7437 39.5851 19.0952L39.587 20.4774V22.9047C39.5915 24.2568 39.5773 25.6089 39.5443 26.9606L39.5332 27.3201C39.5184 27.7351 39.4999 28.1446 39.4776 28.6393C39.385 30.6108 39.07 31.956 38.6142 33.1363C38.1503 34.3735 37.4211 35.4942 36.4778 36.4196C35.5513 37.3614 34.431 38.0904 33.1945 38.5559C32.0142 39.0136 30.669 39.3249 28.6976 39.4175C28.2029 39.4398 27.7934 39.4583 27.3783 39.4731L27.0189 39.4842C25.6672 39.5172 24.315 39.5314 22.9629 39.5268L21.5807 39.5287H19.1553C17.8031 39.5333 16.451 39.5191 15.0993 39.4861L14.7399 39.475C14.3 39.459 13.8602 39.4405 13.4206 39.4194C11.4491 39.3267 10.104 39.0117 8.92182 38.5559C7.68536 38.0915 6.5654 37.3624 5.64037 36.4196C4.69734 35.4937 3.96764 34.3732 3.50215 33.1363C3.04449 31.956 2.73321 30.6108 2.64056 28.6393C2.61993 28.1997 2.6014 27.7599 2.58498 27.3201L2.57571 26.9606C2.54155 25.6089 2.52611 24.2568 2.52939 22.9047V19.0952C2.52422 17.7437 2.53781 16.3922 2.57015 15.0411L2.58312 14.6816C2.59795 14.2666 2.61647 13.8552 2.63871 13.3623C2.73135 11.389 3.04264 10.0457 3.5003 8.86356C3.96606 7.62699 4.69719 6.50752 5.64222 5.58397C6.56662 4.64039 7.68588 3.91002 8.92182 3.44389C10.104 2.98623 11.4473 2.67495 13.4206 2.5823L14.7399 2.52672L15.0993 2.51745C16.4504 2.48331 17.8019 2.46787 19.1534 2.47113L22.9629 2.47298ZM21.0582 11.7374C19.8307 11.72 18.6119 11.9468 17.4728 12.4045C16.3337 12.8623 15.2969 13.5419 14.4227 14.4038C13.5485 15.2657 12.8544 16.2927 12.3806 17.4253C11.9068 18.5578 11.6628 19.7732 11.6628 21.0008C11.6628 22.2285 11.9068 23.4439 12.3806 24.5764C12.8544 25.7089 13.5485 26.736 14.4227 27.5979C15.2969 28.4598 16.3337 29.1394 17.4728 29.5971C18.6119 30.0549 19.8307 30.2817 21.0582 30.2643C23.5152 30.2643 25.8717 29.2882 27.6091 27.5508C29.3465 25.8134 30.3226 23.457 30.3226 20.9999C30.3226 18.5428 29.3465 16.1864 27.6091 14.449C25.8717 12.7116 23.5152 11.7374 21.0582 11.7374ZM21.0582 15.4431C21.7966 15.4295 22.5302 15.5632 23.2164 15.8363C23.9025 16.1095 24.5274 16.5166 25.0544 17.0339C25.5815 17.5512 26.0001 18.1684 26.286 18.8494C26.5718 19.5303 26.7191 20.2614 26.7192 20.9999C26.7193 21.7384 26.5723 22.4695 26.2867 23.1506C26.0011 23.8316 25.5826 24.4489 25.0557 24.9664C24.5289 25.4839 23.9042 25.8913 23.2181 26.1646C22.5321 26.438 21.7984 26.5719 21.06 26.5585C19.5858 26.5585 18.1719 25.9729 17.1295 24.9305C16.087 23.888 15.5014 22.4742 15.5014 20.9999C15.5014 19.5257 16.087 18.1118 17.1295 17.0694C18.1719 16.0269 19.5858 15.4413 21.06 15.4413L21.0582 15.4431ZM30.7858 8.95806C30.188 8.98198 29.6227 9.23627 29.2083 9.66766C28.7938 10.099 28.5623 10.6741 28.5623 11.2723C28.5623 11.8705 28.7938 12.4456 29.2083 12.8769C29.6227 13.3083 30.188 13.5626 30.7858 13.5865C31.4 13.5865 31.9892 13.3425 32.4235 12.9082C32.8579 12.4738 33.1019 11.8847 33.1019 11.2704C33.1019 10.6562 32.8579 10.0671 32.4235 9.63272C31.9892 9.19837 31.4 8.95435 30.7858 8.95435V8.95806Z" fill="white"/>
</g>
</svg>
