<svg width="15" height="15" viewBox="0 0 15 15" fill="none" xmlns="http://www.w3.org/2000/svg">
<path opacity="0.5" d="M7.50008 0.416504C6.09913 0.416504 4.72964 0.831934 3.5648 1.61026C2.39995 2.38859 1.49206 3.49485 0.955938 4.78916C0.419817 6.08347 0.279544 7.50769 0.552856 8.88173C0.826167 10.2558 1.50079 11.5179 2.49141 12.5085C3.48203 13.4991 4.74416 14.1738 6.1182 14.4471C7.49223 14.7204 8.91645 14.5801 10.2108 14.044C11.5051 13.5079 12.6113 12.6 13.3897 11.4351C14.168 10.2703 14.5834 8.90079 14.5834 7.49984C14.5834 6.56964 14.4002 5.64855 14.0442 4.78916C13.6883 3.92977 13.1665 3.14891 12.5088 2.49116C11.851 1.83342 11.0701 1.31166 10.2108 0.955691C9.35137 0.59972 8.43028 0.416504 7.50008 0.416504ZM7.50008 13.1665C6.37932 13.1665 5.28373 12.8342 4.35185 12.2115C3.41997 11.5888 2.69366 10.7038 2.26477 9.66838C1.83587 8.63293 1.72365 7.49355 1.9423 6.39433C2.16095 5.2951 2.70065 4.2854 3.49315 3.4929C4.28564 2.7004 5.29535 2.1607 6.39457 1.94205C7.4938 1.7234 8.63318 1.83562 9.66862 2.26452C10.7041 2.69342 11.5891 3.41973 12.2117 4.35161C12.8344 5.28348 13.1667 6.37908 13.1667 7.49984C13.1667 9.00273 12.5697 10.4441 11.507 11.5068C10.4443 12.5695 9.00298 13.1665 7.50008 13.1665Z" fill="#AFAFAF"/>
<path d="M13.1667 7.49984H14.5833C14.5833 6.56964 14.4001 5.64855 14.0441 4.78916C13.6882 3.92977 13.1664 3.14891 12.5087 2.49116C11.8509 1.83342 11.0701 1.31166 10.2107 0.955691C9.35128 0.59972 8.4302 0.416504 7.5 0.416504V1.83317C9.00289 1.83317 10.4442 2.43019 11.5069 3.4929C12.5696 4.5556 13.1667 5.99694 13.1667 7.49984Z" fill="#3A3A3A"/>
</svg>
