<svg width="244" height="45" viewBox="0 0 244 45" fill="none" xmlns="http://www.w3.org/2000/svg">
<rect width="83" height="45" fill="white"/>
<path d="M26.205 26.425L23.545 17.395L20.99 26.425H26.205ZM18.47 35H10.385L19.415 9.8H27.815L36.845 35H28.62L27.64 31.675H19.415L18.47 35ZM47.7412 29.225H38.3612V22.855H47.7412V29.225ZM50.1215 26.425H56.9815C56.9465 27.545 57.2615 28.455 57.8565 29.085C58.4515 29.715 59.3615 30.065 60.4815 30.065C62.6165 30.065 63.7365 28.63 63.7365 27.195C63.7365 24.36 60.9365 24.465 59.1865 24.465V20.16C60.9015 20.3 63.5265 19.95 63.5265 17.64C63.5265 16.03 62.0915 15.435 60.6565 15.435C58.9415 15.435 57.6815 16.31 57.4715 18.06H50.8915C51.1365 12.39 55.7215 9.975 60.8665 9.975C66.7115 9.975 70.3515 12.67 70.3515 16.87C70.3515 19.11 69.4765 20.755 67.4815 21.735C69.7215 22.61 71.0165 24.465 71.0165 26.88C71.0165 32.62 66.7115 35.525 60.0965 35.525C54.3565 35.525 50.0165 32.55 50.1215 26.425Z" fill="black"/>
<path d="M106.98 29.82L105.23 35H99.7L108.66 9.87H114.715L123.57 35H117.865L116.255 29.82H106.98ZM111.6 15.54L108.38 25.48H114.785L111.67 15.54H111.6ZM126.919 35V9.87H139.624C146.309 9.87 147.534 14.805 147.534 16.975C147.534 19.74 146.134 22.12 143.649 22.96C145.714 23.87 146.834 24.64 146.834 29.33C146.834 33.005 146.834 33.915 147.954 34.335V35H142.144C141.794 33.81 141.584 32.515 141.584 29.925C141.584 26.495 141.374 25.165 137.489 25.165H132.064V35H126.919ZM132.064 20.93H138.224C140.954 20.93 142.284 19.985 142.284 17.5C142.284 16.17 141.689 14.21 138.609 14.21H132.064V20.93ZM173.458 18.095H168.208C167.788 16.59 166.983 13.755 162.643 13.755C160.123 13.755 156.413 15.435 156.413 22.54C156.413 27.055 158.198 31.115 162.643 31.115C165.548 31.115 167.578 29.47 168.208 26.39H173.458C172.408 31.85 168.838 35.665 162.538 35.665C155.853 35.665 151.058 31.15 151.058 22.47C151.058 13.685 156.133 9.205 162.608 9.205C170.133 9.205 173.178 14.385 173.458 18.095ZM181.355 29.82L179.605 35H174.075L183.035 9.87H189.09L197.945 35H192.24L190.63 29.82H181.355ZM185.975 15.54L182.755 25.48H189.16L186.045 15.54H185.975ZM201.294 35V9.87H212.389C220.859 9.87 222.609 17.08 222.609 21.84C222.609 27.23 220.474 35 212.179 35H201.294ZM206.439 14.21V30.66H211.549C215.819 30.66 217.254 26.355 217.254 22.225C217.254 14.805 213.719 14.21 211.479 14.21H206.439ZM231.348 24.115V20.615H232.118C233.588 20.615 236.283 20.475 236.283 17.255C236.283 16.345 235.863 14.07 233.168 14.07C229.808 14.07 229.808 17.255 229.808 18.13H225.258C225.258 13.475 227.883 10.15 233.483 10.15C236.808 10.15 241.183 11.83 241.183 17.08C241.183 19.6 239.608 21.175 238.208 21.805V21.875C239.083 22.12 241.953 23.415 241.953 27.65C241.953 32.34 238.488 35.665 233.483 35.665C231.138 35.665 224.838 35.14 224.838 27.37H229.633L229.598 27.405C229.598 28.735 229.948 31.745 233.238 31.745C235.198 31.745 236.913 30.415 236.913 27.65C236.913 24.255 233.623 24.115 231.348 24.115Z" fill="white"/>
</svg>
