<svg width="15" height="15" viewBox="0 0 15 15" fill="none" xmlns="http://www.w3.org/2000/svg">
<g id="ph:gas-pump-bold" clip-path="url(#clip0_403_3537)">
<path id="Vector" d="M14.5195 3.91582L13.3881 2.78379C13.256 2.6517 13.0768 2.57749 12.89 2.57749C12.7032 2.57749 12.5241 2.6517 12.392 2.78379C12.2599 2.91588 12.1857 3.09503 12.1857 3.28184C12.1857 3.46864 12.2599 3.64779 12.392 3.77988L13.5252 4.91016C13.547 4.93194 13.5642 4.95779 13.576 4.98625C13.5877 5.0147 13.5938 5.04519 13.5938 5.07598V9.72656C13.5938 9.8198 13.5567 9.90922 13.4908 9.97515C13.4249 10.0411 13.3354 10.0781 13.2422 10.0781C13.1489 10.0781 13.0595 10.0411 12.9936 9.97515C12.9277 9.90922 12.8906 9.8198 12.8906 9.72656V7.5C12.8906 7.06488 12.7178 6.64758 12.4101 6.3399C12.1024 6.03223 11.6851 5.85938 11.25 5.85938H10.5469V3.28125C10.5469 2.84613 10.374 2.42883 10.0663 2.12115C9.75867 1.81348 9.34137 1.64063 8.90625 1.64062H4.21875C3.78363 1.64063 3.36633 1.81348 3.05865 2.12115C2.75098 2.42883 2.57813 2.84613 2.57813 3.28125V11.9531H1.875C1.68852 11.9531 1.50968 12.0272 1.37782 12.1591C1.24595 12.2909 1.17188 12.4698 1.17188 12.6562C1.17188 12.8427 1.24595 13.0216 1.37782 13.1534C1.50968 13.2853 1.68852 13.3594 1.875 13.3594H11.25C11.4365 13.3594 11.6153 13.2853 11.7472 13.1534C11.879 13.0216 11.9531 12.8427 11.9531 12.6562C11.9531 12.4698 11.879 12.2909 11.7472 12.1591C11.6153 12.0272 11.4365 11.9531 11.25 11.9531H10.5469V7.26562H11.25C11.3122 7.26562 11.3718 7.29032 11.4157 7.33427C11.4597 7.37823 11.4844 7.43784 11.4844 7.5V9.72656C11.4844 10.1928 11.6696 10.6399 11.9992 10.9695C12.3289 11.2992 12.776 11.4844 13.2422 11.4844C13.7084 11.4844 14.1555 11.2992 14.4852 10.9695C14.8148 10.6399 15 10.1928 15 9.72656V5.07598C15.0006 4.86043 14.9585 4.6469 14.876 4.44776C14.7935 4.24861 14.6724 4.06781 14.5195 3.91582ZM3.98438 11.9531V3.28125C3.98438 3.21909 4.00907 3.15948 4.05302 3.11552C4.09698 3.07157 4.15659 3.04688 4.21875 3.04688H8.90625C8.96841 3.04688 9.02803 3.07157 9.07198 3.11552C9.11593 3.15948 9.14063 3.21909 9.14063 3.28125V11.9531H3.98438ZM8.20313 6.5625C8.20313 6.74898 8.12905 6.92782 7.99718 7.05968C7.86532 7.19155 7.68648 7.26562 7.5 7.26562H5.625C5.43852 7.26562 5.25968 7.19155 5.12782 7.05968C4.99595 6.92782 4.92188 6.74898 4.92188 6.5625C4.92188 6.37602 4.99595 6.19718 5.12782 6.06532C5.25968 5.93345 5.43852 5.85938 5.625 5.85938H7.5C7.68648 5.85938 7.86532 5.93345 7.99718 6.06532C8.12905 6.19718 8.20313 6.37602 8.20313 6.5625Z" fill="#AFAFAF"/>
</g>
<defs>
<clipPath id="clip0_403_3537">
<rect width="15" height="15" fill="white"/>
</clipPath>
</defs>
</svg>
