<svg width="21" height="21" viewBox="0 0 21 21" fill="none" xmlns="http://www.w3.org/2000/svg">
<path id="Vector" d="M7.62687 21L7.20896 17.64C6.98259 17.5525 6.76911 17.4475 6.56851 17.325C6.36791 17.2025 6.17219 17.0712 5.98134 16.9312L2.87313 18.2437L0 13.2562L2.6903 11.2087C2.67289 11.0862 2.66418 10.9679 2.66418 10.8538V10.1461C2.66418 10.0321 2.67289 9.91375 2.6903 9.79125L0 7.74375L2.87313 2.75625L5.98134 4.06875C6.17289 3.92875 6.37314 3.7975 6.58209 3.675C6.79105 3.5525 7 3.4475 7.20896 3.36L7.62687 0H13.3731L13.791 3.36C14.0174 3.4475 14.2309 3.5525 14.4315 3.675C14.6321 3.7975 14.8278 3.92875 15.0187 4.06875L18.1269 2.75625L21 7.74375L18.3097 9.79125C18.3271 9.91375 18.3358 10.0321 18.3358 10.1461V10.8538C18.3358 10.9679 18.3184 11.0862 18.2836 11.2087L20.9739 13.2562L18.1007 18.2437L15.0187 16.9312C14.8271 17.0712 14.6269 17.2025 14.4179 17.325C14.209 17.4475 14 17.5525 13.791 17.64L13.3731 21H7.62687ZM10.5522 14.175C11.5622 14.175 12.4241 13.8162 13.1381 13.0988C13.852 12.3812 14.209 11.515 14.209 10.5C14.209 9.485 13.852 8.61875 13.1381 7.90125C12.4241 7.18375 11.5622 6.825 10.5522 6.825C9.52488 6.825 8.65841 7.18375 7.95284 7.90125C7.24726 8.61875 6.89483 9.485 6.89552 10.5C6.89552 11.515 7.24796 12.3812 7.95284 13.0988C8.65771 13.8162 9.52418 14.175 10.5522 14.175Z" fill="#3A3A3A"/>
</svg>
