<svg width="139" height="175" viewBox="0 0 139 175" fill="none" xmlns="http://www.w3.org/2000/svg">
<g filter="url(#filter0_di_2741_8719)">
<rect x="9" y="24" width="120" height="130" rx="12" fill="#0B101D" shape-rendering="crispEdges"/>
<g filter="url(#filter1_ddi_2741_8719)">
<path fill-rule="evenodd" clip-rule="evenodd" d="M54.7363 42H84.2612V44.6841H54.7363V42ZM44 90.3135L46.6841 90.3135H49.3682V90.3135H46.6841V95.6817H49.3682V98.3658H52.0522V101.05H57.4204V103.734H81.5772V101.05H86.9453V98.3658H89.6294V95.6817H92.3135V90.3135H89.6294V90.3135L92.3135 90.3135L92.3135 90.3135L94.9976 90.3135V52.7363H92.3135V50.0522L89.6294 50.0522L89.6294 50.0522V47.3682L86.9453 47.3682L86.9453 44.6841H81.5772H57.4204H52.0522L52.0522 47.3682V50.0522L52.0522 47.3682H49.3682L49.3682 50.0522L46.6841 50.0522L46.6841 52.7363H44V90.3135ZM89.6294 95.6817H86.9453V95.6816H89.6294V95.6817ZM86.9453 98.3658H81.5771L81.5772 98.3657H86.9453L86.9453 98.3658ZM81.5772 101.05H57.4204L57.4204 98.3658H52.0522L52.0522 95.6817H49.3682L49.3682 95.6816H52.0522V98.3657H57.4204V101.05H81.5772L81.5772 101.05Z" fill="#FDCD00"/>
</g>
<rect x="84.2612" y="60.7886" width="2.68408" height="24.1567" fill="#FAE7A1"/>
<rect x="52.0522" y="60.7886" width="2.68408" height="24.1567" fill="#D59336"/>
<rect x="54.7363" y="58.1045" width="2.68408" height="2.68408" fill="#D59336"/>
<rect x="54.7363" y="84.9453" width="2.68408" height="2.68408" fill="#D59336"/>
<rect x="81.5771" y="84.9453" width="2.68408" height="2.68408" fill="#FAE7A1"/>
<rect x="54.7363" y="60.7886" width="2.68408" height="5.36816" fill="#FAE7A1"/>
<rect x="60.1045" y="90.3135" width="18.7886" height="2.68408" fill="#FAE7A1"/>
<rect x="60.1045" y="52.7363" width="18.7886" height="2.68408" fill="#D59336"/>
<rect x="57.4204" y="55.4204" width="2.68408" height="2.68408" fill="#D59336"/>
<rect x="78.8931" y="55.4204" width="2.68408" height="2.68408" fill="#D59336"/>
<rect x="57.4204" y="87.6294" width="5.36817" height="2.68408" fill="#FAE7A1"/>
<rect x="57.4204" y="58.1045" width="24.1568" height="2.68408" fill="#FAE7A1"/>
<rect x="76.209" y="87.6294" width="5.36817" height="2.68408" fill="#FAE7A1"/>
<rect x="65.4727" y="84.9453" width="8.05225" height="2.68408" fill="#D59336"/>
<rect x="65.4727" y="82.2612" width="8.05225" height="2.68408" fill="#5D380D"/>
<rect x="73.5249" y="66.1567" width="8.05225" height="2.68408" fill="#5D380D"/>
<rect x="57.4204" y="66.1567" width="8.05225" height="2.68408" fill="#5D380D"/>
<rect x="81.5771" y="60.7886" width="2.68408" height="5.36816" fill="#5D380D"/>
<rect x="73.5249" y="68.8408" width="2.68408" height="13.4204" fill="#5D380D"/>
<rect x="62.7886" y="68.8408" width="2.68408" height="13.4204" fill="#5D380D"/>
<rect x="81.5771" y="58.1045" width="2.68408" height="2.68408" fill="#D59336"/>
<rect x="54.7363" y="66.1567" width="2.68408" height="2.68408" fill="#D59336"/>
<g filter="url(#filter2_ddif_2741_8719)">
<path d="M51.4085 117.974H47.4085V115.754H58.5085V117.974H54.5285V128.734H51.4085V117.974ZM62.9231 128.934C62.0164 128.934 61.3364 128.854 60.8831 128.694C60.4431 128.521 60.1297 128.221 59.9431 127.794C59.7697 127.354 59.6831 126.701 59.6831 125.834C59.6831 125.061 59.7764 124.454 59.9631 124.014C60.1631 123.574 60.4764 123.261 60.9031 123.074C61.3431 122.874 61.9431 122.774 62.7031 122.774H65.9831V122.114C65.9831 121.701 65.9231 121.394 65.8031 121.194C65.6964 120.994 65.4897 120.854 65.1831 120.774C64.8897 120.694 64.4431 120.654 63.8431 120.654C63.0164 120.654 61.8831 120.734 60.4431 120.894V119.054C61.4964 118.921 62.7297 118.854 64.1431 118.854C65.3831 118.854 66.3364 118.947 67.0031 119.134C67.6831 119.321 68.1697 119.641 68.4631 120.094C68.7564 120.547 68.9031 121.207 68.9031 122.074V128.734H66.0431V127.854C65.8164 128.241 65.5097 128.514 65.1231 128.674C64.7364 128.847 64.0031 128.934 62.9231 128.934ZM64.0631 127.114C64.6497 127.114 65.0697 127.094 65.3231 127.054C65.5097 127.027 65.6364 126.987 65.7031 126.934C65.7831 126.881 65.8497 126.794 65.9031 126.674C65.9564 126.581 65.9831 126.441 65.9831 126.254V124.374H63.9831C63.5297 124.374 63.2097 124.407 63.0231 124.474C62.8364 124.527 62.7097 124.647 62.6431 124.834C62.5764 125.007 62.5431 125.321 62.5431 125.774C62.5431 126.214 62.5764 126.521 62.6431 126.694C62.7097 126.867 62.8364 126.981 63.0231 127.034C63.2231 127.087 63.5697 127.114 64.0631 127.114ZM71.5521 115.554H74.4721V117.914H71.5521V115.554ZM71.5521 119.054H74.4721V128.734H71.5521V119.054ZM77.1967 114.734H80.1167V128.734H77.1967V114.734ZM86.3812 128.934C85.3412 128.934 84.0679 128.834 82.5612 128.634V126.694C84.4145 126.974 85.7012 127.114 86.4212 127.114C87.0345 127.114 87.4879 127.054 87.7812 126.934C88.0745 126.814 88.2212 126.594 88.2212 126.274V125.674C88.2212 125.341 88.1279 125.107 87.9412 124.974C87.7545 124.827 87.3879 124.754 86.8412 124.754H85.5812C84.5545 124.754 83.7612 124.554 83.2012 124.154C82.6412 123.741 82.3612 123.141 82.3612 122.354V121.174C82.3612 120.334 82.7612 119.741 83.5612 119.394C84.3612 119.034 85.5679 118.854 87.1812 118.854C87.8212 118.854 88.9679 118.914 90.6212 119.034V120.894C88.5412 120.734 87.3679 120.654 87.1012 120.654C86.3145 120.654 85.8012 120.707 85.5612 120.814C85.3479 120.934 85.2412 121.154 85.2412 121.474V121.994C85.2412 122.167 85.3279 122.321 85.5012 122.454C85.6745 122.574 85.9279 122.634 86.2612 122.634H87.5412C89.9145 122.634 91.1012 123.407 91.1012 124.954V126.174C91.1012 126.641 91.0145 127.047 90.8412 127.394C90.6679 127.741 90.4412 128.014 90.1612 128.214C89.8945 128.401 89.5479 128.547 89.1212 128.654C88.7079 128.761 88.2745 128.834 87.8212 128.874C87.4079 128.914 86.9279 128.934 86.3812 128.934Z" fill="#FDCD00"/>
</g>
<rect x="10.5" y="25.5" width="117" height="127" rx="10.5" stroke="black" stroke-width="3" shape-rendering="crispEdges"/>
</g>
<defs>
<filter id="filter0_di_2741_8719" x="8" y="22" width="122" height="132" filterUnits="userSpaceOnUse" color-interpolation-filters="sRGB">
<feFlood flood-opacity="0" result="BackgroundImageFix"/>
<feColorMatrix in="SourceAlpha" type="matrix" values="0 0 0 0 0 0 0 0 0 0 0 0 0 0 0 0 0 0 127 0" result="hardAlpha"/>
<feOffset dy="-1"/>
<feGaussianBlur stdDeviation="0.5"/>
<feComposite in2="hardAlpha" operator="out"/>
<feColorMatrix type="matrix" values="0 0 0 0 1 0 0 0 0 1 0 0 0 0 1 0 0 0 0.05 0"/>
<feBlend mode="normal" in2="BackgroundImageFix" result="effect1_dropShadow_2741_8719"/>
<feBlend mode="normal" in="SourceGraphic" in2="effect1_dropShadow_2741_8719" result="shape"/>
<feColorMatrix in="SourceAlpha" type="matrix" values="0 0 0 0 0 0 0 0 0 0 0 0 0 0 0 0 0 0 127 0" result="hardAlpha"/>
<feMorphology radius="3" operator="erode" in="SourceAlpha" result="effect2_innerShadow_2741_8719"/>
<feOffset dy="-1"/>
<feGaussianBlur stdDeviation="0.5"/>
<feComposite in2="hardAlpha" operator="arithmetic" k2="-1" k3="1"/>
<feColorMatrix type="matrix" values="0 0 0 0 0 0 0 0 0 0 0 0 0 0 0 0 0 0 0.4 0"/>
<feBlend mode="normal" in2="shape" result="effect2_innerShadow_2741_8719"/>
</filter>
<filter id="filter1_ddi_2741_8719" x="0" y="0" width="138.998" height="149.734" filterUnits="userSpaceOnUse" color-interpolation-filters="sRGB">
<feFlood flood-opacity="0" result="BackgroundImageFix"/>
<feColorMatrix in="SourceAlpha" type="matrix" values="0 0 0 0 0 0 0 0 0 0 0 0 0 0 0 0 0 0 127 0" result="hardAlpha"/>
<feOffset dy="2"/>
<feGaussianBlur stdDeviation="6"/>
<feComposite in2="hardAlpha" operator="out"/>
<feColorMatrix type="matrix" values="0 0 0 0 0.992157 0 0 0 0 0.803922 0 0 0 0 0 0 0 0 1 0"/>
<feBlend mode="normal" in2="BackgroundImageFix" result="effect1_dropShadow_2741_8719"/>
<feColorMatrix in="SourceAlpha" type="matrix" values="0 0 0 0 0 0 0 0 0 0 0 0 0 0 0 0 0 0 127 0" result="hardAlpha"/>
<feOffset dy="2"/>
<feGaussianBlur stdDeviation="22"/>
<feComposite in2="hardAlpha" operator="out"/>
<feColorMatrix type="matrix" values="0 0 0 0 0.992157 0 0 0 0 0.803922 0 0 0 0 0 0 0 0 1 0"/>
<feBlend mode="normal" in2="effect1_dropShadow_2741_8719" result="effect2_dropShadow_2741_8719"/>
<feBlend mode="normal" in="SourceGraphic" in2="effect2_dropShadow_2741_8719" result="shape"/>
<feColorMatrix in="SourceAlpha" type="matrix" values="0 0 0 0 0 0 0 0 0 0 0 0 0 0 0 0 0 0 127 0" result="hardAlpha"/>
<feOffset/>
<feGaussianBlur stdDeviation="12"/>
<feComposite in2="hardAlpha" operator="arithmetic" k2="-1" k3="1"/>
<feColorMatrix type="matrix" values="0 0 0 0 0.992157 0 0 0 0 0.803922 0 0 0 0 0 0 0 0 1 0"/>
<feBlend mode="normal" in2="shape" result="effect3_innerShadow_2741_8719"/>
</filter>
<filter id="filter2_ddif_2741_8719" x="3.40857" y="72.7339" width="131.693" height="102.2" filterUnits="userSpaceOnUse" color-interpolation-filters="sRGB">
<feFlood flood-opacity="0" result="BackgroundImageFix"/>
<feColorMatrix in="SourceAlpha" type="matrix" values="0 0 0 0 0 0 0 0 0 0 0 0 0 0 0 0 0 0 127 0" result="hardAlpha"/>
<feOffset dy="2"/>
<feGaussianBlur stdDeviation="6"/>
<feComposite in2="hardAlpha" operator="out"/>
<feColorMatrix type="matrix" values="0 0 0 0 0.992157 0 0 0 0 0.803922 0 0 0 0 0 0 0 0 1 0"/>
<feBlend mode="normal" in2="BackgroundImageFix" result="effect1_dropShadow_2741_8719"/>
<feColorMatrix in="SourceAlpha" type="matrix" values="0 0 0 0 0 0 0 0 0 0 0 0 0 0 0 0 0 0 127 0" result="hardAlpha"/>
<feOffset dy="2"/>
<feGaussianBlur stdDeviation="22"/>
<feComposite in2="hardAlpha" operator="out"/>
<feColorMatrix type="matrix" values="0 0 0 0 0.992157 0 0 0 0 0.803922 0 0 0 0 0 0 0 0 1 0"/>
<feBlend mode="normal" in2="effect1_dropShadow_2741_8719" result="effect2_dropShadow_2741_8719"/>
<feBlend mode="normal" in="SourceGraphic" in2="effect2_dropShadow_2741_8719" result="shape"/>
<feColorMatrix in="SourceAlpha" type="matrix" values="0 0 0 0 0 0 0 0 0 0 0 0 0 0 0 0 0 0 127 0" result="hardAlpha"/>
<feOffset/>
<feGaussianBlur stdDeviation="12"/>
<feComposite in2="hardAlpha" operator="arithmetic" k2="-1" k3="1"/>
<feColorMatrix type="matrix" values="0 0 0 0 0.992157 0 0 0 0 0.803922 0 0 0 0 0 0 0 0 1 0"/>
<feBlend mode="normal" in2="shape" result="effect3_innerShadow_2741_8719"/>
<feGaussianBlur stdDeviation="0.5" result="effect4_foregroundBlur_2741_8719"/>
</filter>
</defs>
</svg>
