<svg width="122" height="132" viewBox="0 0 122 132" fill="none" xmlns="http://www.w3.org/2000/svg">
<g filter="url(#filter0_di_2741_7424)">
<rect x="1" y="2" width="120" height="130" rx="12" fill="url(#paint0_linear_2741_7424)" shape-rendering="crispEdges"/>
<path fill-rule="evenodd" clip-rule="evenodd" d="M46.7363 20H76.2612V22.6841H46.7363V20ZM36 68.3135L38.6841 68.3135H41.3682V68.3135H38.6841V73.6817H41.3682V76.3658H44.0522V79.0498H49.4204V81.7339H73.5772V79.0498H78.9453V76.3658H81.6294V73.6817H84.3135V68.3135H81.6294V68.3135L84.3135 68.3135L84.3135 68.3135L86.9976 68.3135V30.7363H84.3135V28.0522L81.6294 28.0522L81.6294 28.0522V25.3682L78.9453 25.3682L78.9453 22.6841H73.5772H49.4204H44.0522L44.0522 25.3682V28.0522L44.0522 25.3682H41.3682L41.3682 28.0522L38.6841 28.0522L38.6841 30.7363H36V68.3135ZM81.6294 73.6817H78.9453V73.6816H81.6294V73.6817ZM78.9453 76.3658H73.5771L73.5772 76.3657H78.9453L78.9453 76.3658ZM73.5772 79.0498H49.4204L49.4204 76.3658H44.0522L44.0522 73.6817H41.3682L41.3682 73.6816H44.0522V76.3657H49.4204V79.0498H73.5772L73.5772 79.0498Z" fill="white" fill-opacity="0.3"/>
<rect x="76.2612" y="38.7886" width="2.68408" height="24.1567" fill="white" fill-opacity="0.15"/>
<rect x="44.0522" y="38.7886" width="2.68408" height="24.1567" fill="white" fill-opacity="0.15"/>
<rect x="46.7363" y="36.1045" width="2.68408" height="2.68408" fill="white" fill-opacity="0.15"/>
<rect x="46.7363" y="62.9453" width="2.68408" height="2.68408" fill="white" fill-opacity="0.15"/>
<rect x="73.5771" y="62.9453" width="2.68408" height="2.68408" fill="white" fill-opacity="0.15"/>
<rect x="46.7363" y="38.7886" width="2.68408" height="5.36816" fill="white" fill-opacity="0.3"/>
<rect x="52.1045" y="68.3135" width="18.7886" height="2.68408" fill="white" fill-opacity="0.15"/>
<rect x="52.1045" y="30.7363" width="18.7886" height="2.68408" fill="white" fill-opacity="0.15"/>
<rect x="49.4204" y="33.4204" width="2.68408" height="2.68408" fill="white" fill-opacity="0.15"/>
<rect x="70.8931" y="33.4204" width="2.68408" height="2.68408" fill="white" fill-opacity="0.15"/>
<rect x="49.4204" y="65.6294" width="5.36817" height="2.68408" fill="white" fill-opacity="0.15"/>
<rect x="49.4204" y="36.1045" width="24.1568" height="2.68408" fill="white" fill-opacity="0.3"/>
<rect x="68.209" y="65.6294" width="5.36817" height="2.68408" fill="white" fill-opacity="0.15"/>
<rect x="57.4727" y="62.9453" width="8.05225" height="2.68408" fill="white" fill-opacity="0.15"/>
<rect x="57.4727" y="60.2612" width="8.05225" height="2.68408" fill="white" fill-opacity="0.3"/>
<rect x="65.5249" y="44.1567" width="8.05225" height="2.68408" fill="white" fill-opacity="0.3"/>
<rect x="49.4204" y="44.1567" width="8.05225" height="2.68408" fill="white" fill-opacity="0.3"/>
<rect x="73.5771" y="38.7886" width="2.68408" height="5.36816" fill="white" fill-opacity="0.3"/>
<rect x="65.5249" y="46.8408" width="2.68408" height="13.4204" fill="white" fill-opacity="0.3"/>
<rect x="54.7886" y="46.8408" width="2.68408" height="13.4204" fill="white" fill-opacity="0.3"/>
<rect x="73.5771" y="36.1045" width="2.68408" height="2.68408" fill="white" fill-opacity="0.15"/>
<rect x="46.7363" y="44.1567" width="2.68408" height="2.68408" fill="white" fill-opacity="0.15"/>
<path d="M43.4085 95.9739H39.4085V93.7539H50.5085V95.9739H46.5285V106.734H43.4085V95.9739ZM54.9231 106.934C54.0164 106.934 53.3364 106.854 52.8831 106.694C52.4431 106.521 52.1297 106.221 51.9431 105.794C51.7697 105.354 51.6831 104.701 51.6831 103.834C51.6831 103.061 51.7764 102.454 51.9631 102.014C52.1631 101.574 52.4764 101.261 52.9031 101.074C53.3431 100.874 53.9431 100.774 54.7031 100.774H57.9831V100.114C57.9831 99.7006 57.9231 99.3939 57.8031 99.1939C57.6964 98.9939 57.4897 98.8539 57.1831 98.7739C56.8897 98.6939 56.4431 98.6539 55.8431 98.6539C55.0164 98.6539 53.8831 98.7339 52.4431 98.8939V97.0539C53.4964 96.9206 54.7297 96.8539 56.1431 96.8539C57.3831 96.8539 58.3364 96.9472 59.0031 97.1339C59.6831 97.3206 60.1697 97.6406 60.4631 98.0939C60.7564 98.5472 60.9031 99.2072 60.9031 100.074V106.734H58.0431V105.854C57.8164 106.241 57.5097 106.514 57.1231 106.674C56.7364 106.847 56.0031 106.934 54.9231 106.934ZM56.0631 105.114C56.6497 105.114 57.0697 105.094 57.3231 105.054C57.5097 105.027 57.6364 104.987 57.7031 104.934C57.7831 104.881 57.8497 104.794 57.9031 104.674C57.9564 104.581 57.9831 104.441 57.9831 104.254V102.374H55.9831C55.5297 102.374 55.2097 102.407 55.0231 102.474C54.8364 102.527 54.7097 102.647 54.6431 102.834C54.5764 103.007 54.5431 103.321 54.5431 103.774C54.5431 104.214 54.5764 104.521 54.6431 104.694C54.7097 104.867 54.8364 104.981 55.0231 105.034C55.2231 105.087 55.5697 105.114 56.0631 105.114ZM63.5521 93.5539H66.4721V95.9139H63.5521V93.5539ZM63.5521 97.0539H66.4721V106.734H63.5521V97.0539ZM69.1967 92.7339H72.1167V106.734H69.1967V92.7339ZM78.3812 106.934C77.3412 106.934 76.0679 106.834 74.5612 106.634V104.694C76.4145 104.974 77.7012 105.114 78.4212 105.114C79.0345 105.114 79.4879 105.054 79.7812 104.934C80.0745 104.814 80.2212 104.594 80.2212 104.274V103.674C80.2212 103.341 80.1279 103.107 79.9412 102.974C79.7545 102.827 79.3879 102.754 78.8412 102.754H77.5812C76.5545 102.754 75.7612 102.554 75.2012 102.154C74.6412 101.741 74.3612 101.141 74.3612 100.354V99.1739C74.3612 98.3339 74.7612 97.7406 75.5612 97.3939C76.3612 97.0339 77.5679 96.8539 79.1812 96.8539C79.8212 96.8539 80.9679 96.9139 82.6212 97.0339V98.8939C80.5412 98.7339 79.3679 98.6539 79.1012 98.6539C78.3145 98.6539 77.8012 98.7072 77.5612 98.8139C77.3479 98.9339 77.2412 99.1539 77.2412 99.4739V99.9939C77.2412 100.167 77.3279 100.321 77.5012 100.454C77.6745 100.574 77.9279 100.634 78.2612 100.634H79.5412C81.9145 100.634 83.1012 101.407 83.1012 102.954V104.174C83.1012 104.641 83.0145 105.047 82.8412 105.394C82.6679 105.741 82.4412 106.014 82.1612 106.214C81.8945 106.401 81.5479 106.547 81.1212 106.654C80.7079 106.761 80.2745 106.834 79.8212 106.874C79.4079 106.914 78.9279 106.934 78.3812 106.934Z" fill="white" fill-opacity="0.3"/>
<rect x="2.5" y="3.5" width="117" height="127" rx="10.5" stroke="black" stroke-width="3" shape-rendering="crispEdges"/>
</g>
<defs>
<filter id="filter0_di_2741_7424" x="0" y="0" width="122" height="132" filterUnits="userSpaceOnUse" color-interpolation-filters="sRGB">
<feFlood flood-opacity="0" result="BackgroundImageFix"/>
<feColorMatrix in="SourceAlpha" type="matrix" values="0 0 0 0 0 0 0 0 0 0 0 0 0 0 0 0 0 0 127 0" result="hardAlpha"/>
<feOffset dy="-1"/>
<feGaussianBlur stdDeviation="0.5"/>
<feComposite in2="hardAlpha" operator="out"/>
<feColorMatrix type="matrix" values="0 0 0 0 1 0 0 0 0 1 0 0 0 0 1 0 0 0 0.05 0"/>
<feBlend mode="normal" in2="BackgroundImageFix" result="effect1_dropShadow_2741_7424"/>
<feBlend mode="normal" in="SourceGraphic" in2="effect1_dropShadow_2741_7424" result="shape"/>
<feColorMatrix in="SourceAlpha" type="matrix" values="0 0 0 0 0 0 0 0 0 0 0 0 0 0 0 0 0 0 127 0" result="hardAlpha"/>
<feMorphology radius="3" operator="erode" in="SourceAlpha" result="effect2_innerShadow_2741_7424"/>
<feOffset dy="-1"/>
<feGaussianBlur stdDeviation="0.5"/>
<feComposite in2="hardAlpha" operator="arithmetic" k2="-1" k3="1"/>
<feColorMatrix type="matrix" values="0 0 0 0 0 0 0 0 0 0 0 0 0 0 0 0 0 0 0.4 0"/>
<feBlend mode="normal" in2="shape" result="effect2_innerShadow_2741_7424"/>
</filter>
<linearGradient id="paint0_linear_2741_7424" x1="61" y1="2" x2="61" y2="132" gradientUnits="userSpaceOnUse">
<stop stop-color="#101729"/>
<stop offset="1" stop-color="#0B101D"/>
</linearGradient>
</defs>
</svg>
