<svg width="37" height="42" viewBox="0 0 37 42" fill="none" xmlns="http://www.w3.org/2000/svg">
<g id="fa6-brands:square-x-twitter" clip-path="url(#clip0_748_993)">
<path id="Vector" d="M5.36719 2.625C2.47148 2.625 0.117188 4.9793 0.117188 7.875V34.125C0.117188 37.0207 2.47148 39.375 5.36719 39.375H31.6172C34.5129 39.375 36.8672 37.0207 36.8672 34.125V7.875C36.8672 4.9793 34.5129 2.625 31.6172 2.625H5.36719ZM29.7387 9.51562L21.2238 19.2445L31.2398 32.4844H23.3977L17.2617 24.4535L10.2316 32.4844H6.33516L15.4406 22.0746L5.83477 9.51562H13.8738L19.4273 16.8574L25.8422 9.51562H29.7387ZM26.6379 30.1547L12.7008 11.7223H10.3793L24.4723 30.1547H26.6297H26.6379Z" fill="white"/>
</g>
<defs>
<clipPath id="clip0_748_993">
<rect width="36.75" height="42" fill="white" transform="translate(0.117188)"/>
</clipPath>
</defs>
</svg>
