<svg width="38" height="42" viewBox="0 0 38 42" fill="none" xmlns="http://www.w3.org/2000/svg">
<g id="fa6-brands:square-whatsapp" clip-path="url(#clip0_748_991)">
<path id="Vector" d="M19.3008 10.0734C13.3371 10.0734 8.48906 14.9215 8.48086 20.8852C8.48086 22.9277 9.05508 24.9211 10.1379 26.6355L10.3922 27.0457L9.30117 31.0324L13.3945 29.9578L13.7883 30.1957C15.4453 31.1801 17.3484 31.7051 19.2926 31.7051H19.3008C25.2563 31.7051 30.2355 26.857 30.2355 20.8934C30.2355 18.0059 28.9887 15.2906 26.9461 13.248C24.8953 11.1973 22.1883 10.0734 19.3008 10.0734ZM25.6582 25.5281C25.3875 26.291 24.0914 26.9801 23.468 27.0703C22.4344 27.2262 21.6305 27.1441 19.5715 26.2582C16.3148 24.8473 14.182 21.566 14.018 21.3527C13.8539 21.1395 12.6891 19.5891 12.6891 17.9895C12.6891 16.3898 13.5258 15.6023 13.8293 15.2742C14.1246 14.9461 14.4773 14.8641 14.6988 14.8641C14.9121 14.8641 15.1336 14.8641 15.3223 14.8723C15.5191 14.8805 15.7898 14.7984 16.0523 15.4301C16.323 16.0781 16.9711 17.6777 17.0531 17.8418C17.1352 18.0059 17.1926 18.1945 17.0777 18.4078C16.4543 19.6547 15.7898 19.6055 16.1262 20.1797C17.3813 22.3371 18.6363 23.0836 20.5477 24.0434C20.8758 24.2074 21.0645 24.1828 21.2531 23.9613C21.4418 23.748 22.0652 23.0098 22.2785 22.6898C22.4918 22.3617 22.7133 22.4191 23.0086 22.5258C23.3039 22.6324 24.9035 23.4199 25.2316 23.584C25.5598 23.748 25.773 23.8301 25.8551 23.9613C25.9289 24.1172 25.9289 24.7734 25.6582 25.5281ZM33.7383 2.625H4.86328C2.68945 2.625 0.925781 4.38867 0.925781 6.5625V35.4375C0.925781 37.6113 2.68945 39.375 4.86328 39.375H33.7383C35.9121 39.375 37.6758 37.6113 37.6758 35.4375V6.5625C37.6758 4.38867 35.9121 2.625 33.7383 2.625ZM19.2926 33.8953C17.1105 33.8953 14.9695 33.3457 13.0746 32.3121L6.17578 34.125L8.02148 27.382C6.88125 25.4133 6.28242 23.1738 6.28242 20.877C6.29063 13.7074 12.123 7.875 19.2926 7.875C22.7707 7.875 26.0355 9.22852 28.4965 11.6895C30.9492 14.1504 32.4258 17.4152 32.4258 20.8934C32.4258 28.0629 26.4621 33.8953 19.2926 33.8953Z" fill="white"/>
</g>
<defs>
<clipPath id="clip0_748_991">
<rect width="36.75" height="42" fill="white" transform="translate(0.925781)"/>
</clipPath>
</defs>
</svg>
