<svg width="35" height="52" viewBox="0 0 35 52" fill="none" xmlns="http://www.w3.org/2000/svg">
<mask id="mask0_30_351" style="mask-type:luminance" maskUnits="userSpaceOnUse" x="0" y="0" width="35" height="52">
<path d="M35 0.906616H0.515137V51.0239H35V0.906616Z" fill="white"/>
</mask>
<g mask="url(#mask0_30_351)">
<path fill-rule="evenodd" clip-rule="evenodd" d="M21.0243 4.84724C22.8474 4.84724 24.5575 5.09143 26.1408 5.54433C24.5907 1.93455 21.3721 0.906616 17.7901 0.906616C14.2011 0.906616 10.9769 1.93859 9.43026 5.56559C11.002 5.09678 12.7047 4.84724 14.5216 4.84724H21.0243ZM14.1046 8.47132C5.44759 8.47132 0.515137 15.276 0.515137 23.6699V32.2924C0.515137 33.132 1.21693 33.796 2.08263 33.796H33.4324C34.2983 33.796 35 33.132 35 32.2924V23.6699C35 15.276 29.2644 8.47132 20.6073 8.47132H14.1046ZM17.7453 23.7445C20.7753 23.7445 23.2316 21.2903 23.2316 18.2629C23.2316 15.2355 20.7753 12.7813 17.7453 12.7813C14.7154 12.7813 12.2591 15.2355 12.2591 18.2629C12.2591 21.2903 14.7154 23.7445 17.7453 23.7445ZM0.515137 38.8643C0.515137 38.0249 1.21693 37.3445 2.08263 37.3445H33.4324C34.2983 37.3445 35 38.0249 35 38.8643V47.9834C35 49.6621 33.5965 51.0232 31.865 51.0232H3.65013C1.91872 51.0232 0.515137 49.6621 0.515137 47.9834V38.8643Z" fill="white"/>
</g>
</svg>
