<svg width="15" height="15" viewBox="0 0 15 15" fill="none" xmlns="http://www.w3.org/2000/svg">
<path fill-rule="evenodd" clip-rule="evenodd" d="M12.2555 13.7385C12.665 14.148 13.329 14.148 13.7385 13.7385C14.148 13.329 14.148 12.665 13.7385 12.2555L8.50581 7.02283L13.7385 1.79013C14.148 1.38061 14.148 0.716659 13.7385 0.307144C13.329 -0.10237 12.665 -0.10237 12.2555 0.307145L7.02283 5.53985L1.79012 0.307136C1.3806 -0.102379 0.71665 -0.102379 0.307135 0.307136C-0.102379 0.71665 -0.102378 1.38061 0.307136 1.79012L5.53985 7.02283L0.307149 12.2555C-0.102365 12.665 -0.102365 13.329 0.307149 13.7385C0.716664 14.148 1.38062 14.148 1.79013 13.7385L7.02283 8.50581L12.2555 13.7385Z" fill="#D9D9D9"/>
</svg>
