<svg width="23" height="24" viewBox="0 0 23 24" fill="none" xmlns="http://www.w3.org/2000/svg">
<g clip-path="url(#clip0_16_21)">
<path d="M20.8266 10.7606L12.2923 2.22629C11.5993 1.53726 10.4799 1.53726 9.78695 2.22629L1.25262 10.7606C0.563592 11.4536 0.563593 12.573 1.25262 13.2659L9.78696 21.8003C10.4799 22.4893 11.5993 22.4893 12.2923 21.8003L20.8266 13.2659C21.5156 12.573 21.5156 11.4536 20.8266 10.7606ZM3.27941 13.265C2.58795 12.5739 2.58775 11.453 3.27896 10.7615C3.97015 10.0701 5.09103 10.0699 5.78248 10.7611C6.47393 11.4523 6.47414 12.5731 5.78293 13.2646L5.7827 13.2648C5.09163 13.9562 3.97097 13.9563 3.27963 13.2653C3.27955 13.2652 3.27948 13.2651 3.27941 13.265ZM6.53363 10.0108C5.84218 9.31963 5.84199 8.19875 6.53318 7.5073C7.22437 6.81585 8.34525 6.81566 9.0367 7.50685C9.72815 8.19804 9.72834 9.31892 9.03715 10.0104L9.03693 10.0106C8.34568 10.7018 7.22501 10.7019 6.53363 10.0108ZM9.78807 6.75638C9.09662 6.06518 9.09644 4.9443 9.78763 4.25285C10.4788 3.5614 11.5997 3.56121 12.2911 4.2524C12.9826 4.9436 12.9828 6.06448 12.2916 6.75593L12.2911 6.75638C11.5999 7.44758 10.4793 7.44758 9.78807 6.75638ZM9.78785 19.7735C9.09653 19.0822 9.09653 17.9613 9.78785 17.27C10.4792 16.5786 11.6001 16.5786 12.2914 17.27C12.9827 17.9613 12.9827 19.0822 12.2914 19.7735C11.6003 20.4648 10.4796 20.465 9.7883 19.7739C9.78815 19.7738 9.788 19.7736 9.78785 19.7735ZM13.0421 16.5193C12.3508 15.8279 12.3508 14.7071 13.0421 14.0157C13.7334 13.3244 14.8543 13.3244 15.5456 14.0157C16.2369 14.7071 16.2369 15.8279 15.5456 16.5193C14.8543 17.2106 13.7334 17.2106 13.0421 16.5193ZM16.2965 13.2648C15.6052 12.5735 15.6052 11.4526 16.2965 10.7613C16.9878 10.07 18.1087 10.07 18.8 10.7613C19.4914 11.4526 19.4914 12.5735 18.8 13.2648L18.7998 13.265C18.1086 13.9563 16.988 13.9563 16.2967 13.265C16.2967 13.265 16.2966 13.2649 16.2965 13.2648Z" fill="#BABABA"/>
</g>
<defs>
<clipPath id="clip0_16_21">
<rect width="15.6124" height="15.6124" fill="white" transform="translate(11.0396 0.973633) rotate(45)"/>
</clipPath>
</defs>
</svg>
