<svg width="11" height="15" viewBox="0 0 11 15" fill="none" xmlns="http://www.w3.org/2000/svg">
<path d="M9.625 5.3625H9.16667V3.575C9.16667 1.60334 7.52222 0 5.5 0C3.47778 0 1.83333 1.60334 1.83333 3.575V5.3625H1.375C0.617228 5.3625 0 5.96364 0 6.70313V12.9594C0 13.6989 0.617228 14.3 1.375 14.3H9.625C10.3828 14.3 11 13.6989 11 12.9594V6.70313C11 5.96364 10.3828 5.3625 9.625 5.3625ZM3.05559 3.575C3.05559 2.26056 4.15186 1.1917 5.5 1.1917C6.84814 1.1917 7.94441 2.26056 7.94441 3.575V5.3625H3.05559V3.575Z" fill="#BABABA"/>
</svg>
