<svg width="36" height="36" viewBox="0 0 36 36" fill="none" xmlns="http://www.w3.org/2000/svg">
<circle cx="18" cy="18" r="18" fill="#D9D9D9"/>
<path d="M22.9091 15.9545H22.3637V13.909C22.3637 11.6528 20.4066 9.81812 18 9.81812C15.5934 9.81812 13.6364 11.6528 13.6364 13.909V15.9545H13.0909C12.1891 15.9545 11.4546 16.6424 11.4546 17.4886V24.6477C11.4546 25.4939 12.1891 26.1818 13.0909 26.1818H22.9091C23.8109 26.1818 24.5455 25.4939 24.5455 24.6477V17.4886C24.5455 16.6424 23.8109 15.9545 22.9091 15.9545ZM15.091 13.909C15.091 12.4049 16.3956 11.1818 18 11.1818C19.6044 11.1818 20.9091 12.4049 20.9091 13.909V15.9545H15.091V13.909Z" fill="black"/>
</svg>
