<svg width="26" height="26" viewBox="0 0 26 26" fill="none" xmlns="http://www.w3.org/2000/svg">
<path fill-rule="evenodd" clip-rule="evenodd" d="M22.6914 25.3847C23.4481 26.1413 24.6749 26.1413 25.4315 25.3847C26.1882 24.628 26.1882 23.4012 25.4315 22.6446L15.7636 12.9766L25.4325 3.30775C26.1892 2.55109 26.1892 1.3243 25.4325 0.567642C24.6758 -0.189019 23.449 -0.189018 22.6924 0.567643L13.0235 10.2365L3.35448 0.567496C2.59782 -0.189165 1.37103 -0.189165 0.61437 0.567496C-0.142291 1.32416 -0.142289 2.55095 0.614372 3.30761L10.2834 12.9766L0.615316 22.6447C-0.141345 23.4014 -0.141345 24.6282 0.615316 25.3848C1.37198 26.1415 2.59877 26.1415 3.35543 25.3848L13.0235 15.7167L22.6914 25.3847Z" fill="white"/>
</svg>
