<svg width="19" height="16" viewBox="0 0 19 16" fill="none" xmlns="http://www.w3.org/2000/svg">
<path d="M16.03 1.81444C14.8301 1.25509 13.531 0.849109 12.1777 0.614543C12.1658 0.614164 12.154 0.616391 12.1431 0.621067C12.1322 0.625743 12.1225 0.632755 12.1146 0.641609C11.9522 0.939327 11.7627 1.32726 11.6364 1.62498C10.201 1.40846 8.74132 1.40846 7.30596 1.62498C7.17966 1.31824 6.9902 0.939327 6.81879 0.641609C6.80977 0.623565 6.7827 0.614543 6.75564 0.614543C5.40237 0.849109 4.11226 1.25509 2.90335 1.81444C2.89433 1.81444 2.8853 1.82346 2.87628 1.83248C0.422366 5.50433 -0.254265 9.07695 0.0795395 12.6135C0.0795395 12.6315 0.0885612 12.6496 0.106605 12.6586C1.73052 13.8495 3.29128 14.5712 4.834 15.0493C4.86107 15.0584 4.88813 15.0493 4.89716 15.0313C5.25803 14.5351 5.58281 14.0118 5.86248 13.4615C5.88053 13.4254 5.86248 13.3893 5.8264 13.3803C5.31216 13.1818 4.82498 12.9473 4.34683 12.6766C4.31074 12.6586 4.31074 12.6045 4.33781 12.5774C4.43705 12.5052 4.53628 12.424 4.63552 12.3518C4.65357 12.3338 4.68063 12.3338 4.69868 12.3428C7.80216 13.7592 11.1492 13.7592 14.2166 12.3428C14.2347 12.3338 14.2617 12.3338 14.2798 12.3518C14.379 12.433 14.4783 12.5052 14.5775 12.5864C14.6136 12.6135 14.6136 12.6676 14.5685 12.6856C14.0993 12.9653 13.6031 13.1909 13.0889 13.3893C13.0528 13.3984 13.0438 13.4435 13.0528 13.4705C13.3415 14.0209 13.6663 14.5441 14.0181 15.0403C14.0452 15.0493 14.0723 15.0584 14.0993 15.0493C15.6511 14.5712 17.2118 13.8495 18.8358 12.6586C18.8538 12.6496 18.8628 12.6315 18.8628 12.6135C19.2598 8.52662 18.2042 4.98107 16.0661 1.83248C16.0571 1.82346 16.048 1.81444 16.03 1.81444ZM6.33161 10.4573C5.40237 10.4573 4.6265 9.60021 4.6265 8.54466C4.6265 7.48912 5.38433 6.63205 6.33161 6.63205C7.28792 6.63205 8.04575 7.49814 8.03673 8.54466C8.03673 9.60021 7.2789 10.4573 6.33161 10.4573ZM12.6198 10.4573C11.6905 10.4573 10.9147 9.60021 10.9147 8.54466C10.9147 7.48912 11.6725 6.63205 12.6198 6.63205C13.5761 6.63205 14.3339 7.49814 14.3249 8.54466C14.3249 9.60021 13.5761 10.4573 12.6198 10.4573Z" fill="white" fill-opacity="50%"/>
</svg>
