<svg width="51" height="51" viewBox="0 0 51 51" fill="none" xmlns="http://www.w3.org/2000/svg">
<path d="M25.1 50.2C38.9624 50.2 50.2 38.9624 50.2 25.1C50.2 11.2377 38.9624 0 25.1 0C11.2377 0 0 11.2377 0 25.1C0 38.9624 11.2377 50.2 25.1 50.2Z" fill="url(#paint0_linear_30_319)"/>
<path d="M43.0865 25.4207H38.6554C38.6554 16.3544 31.3382 9.00806 22.301 9.00806C13.3513 9.00806 6.06327 16.1503 5.88836 25.1C5.71344 34.2538 14.3425 42.2124 23.5254 42.2124H24.6915C32.7958 42.2124 43.6695 35.8863 45.3604 28.1902C45.6227 26.9366 44.8065 25.7414 43.5529 25.479C43.4072 25.4207 43.2614 25.4207 43.0865 25.4207ZM15.6835 25.8289C15.6835 27.0532 14.6923 28.0153 13.4679 28.0153C12.2435 28.0153 11.2815 27.0241 11.2815 25.8289V22.2723C11.2815 21.0479 12.2727 20.0859 13.4971 20.0859C14.7215 20.0859 15.6835 21.077 15.6835 22.2723V25.8289ZM23.3213 25.8289C23.3213 27.0532 22.3302 28.0153 21.1058 28.0153C19.8814 28.0153 18.9194 27.0241 18.9194 25.8289V22.2723C18.9194 21.0479 19.9105 20.0859 21.1349 20.0859C22.3593 20.0859 23.3213 21.077 23.3213 22.2723V25.8289Z" fill="url(#paint1_linear_30_319)"/>
<defs>
<linearGradient id="paint0_linear_30_319" x1="25.1117" y1="0" x2="25.1117" y2="50.2233" gradientUnits="userSpaceOnUse">
<stop stop-color="#534BB1"/>
<stop offset="1" stop-color="#551BF9"/>
</linearGradient>
<linearGradient id="paint1_linear_30_319" x1="25.6459" y1="9.08385" x2="25.6459" y2="42.2094" gradientUnits="userSpaceOnUse">
<stop stop-color="white"/>
<stop offset="1" stop-color="white" stop-opacity="0.82"/>
</linearGradient>
</defs>
</svg>
