<svg width="20" height="20" viewBox="0 0 20 20" fill="none" xmlns="http://www.w3.org/2000/svg">
<path d="M9.89999 19.8C15.3676 19.8 19.8 15.3676 19.8 9.89999C19.8 4.43238 15.3676 0 9.89999 0C4.43238 0 0 4.43238 0 9.89999C0 15.3676 4.43238 19.8 9.89999 19.8Z" fill="white"/>
<path d="M16.9941 10.0265H15.2464C15.2464 6.45054 12.3603 3.55298 8.79584 3.55298C5.26587 3.55298 2.39131 6.37005 2.32232 9.90001C2.25333 13.5105 5.65681 16.6495 9.27876 16.6495H9.73869C12.9352 16.6495 17.2241 14.1544 17.891 11.1188C17.9944 10.6244 17.6725 10.153 17.1781 10.0495C17.1206 10.0265 17.0631 10.0265 16.9941 10.0265ZM6.18573 10.1875C6.18573 10.6704 5.79479 11.0498 5.31187 11.0498C4.82894 11.0498 4.4495 10.6589 4.4495 10.1875V8.78468C4.4495 8.30176 4.84044 7.92231 5.32336 7.92231C5.80629 7.92231 6.18573 8.31325 6.18573 8.78468V10.1875ZM9.19827 10.1875C9.19827 10.6704 8.80733 11.0498 8.32441 11.0498C7.84148 11.0498 7.46204 10.6589 7.46204 10.1875V8.78468C7.46204 8.30176 7.85298 7.92231 8.33591 7.92231C8.81883 7.92231 9.19827 8.31325 9.19827 8.78468V10.1875Z" fill="#382734"/>
</svg>
