<svg width="40" height="40" viewBox="0 0 40 40" fill="none" xmlns="http://www.w3.org/2000/svg">
<path d="M33.499 10.1778H30.0584C30.6066 8.96805 30.6131 7.59247 30.0007 6.39296C28.5269 3.48096 24.479 3.16474 22.562 5.78543L19.9977 9.27036L17.4347 5.78801C15.5076 3.15165 11.4602 3.4974 9.99725 6.3878C9.38279 7.59182 9.38908 8.96788 9.93711 10.1778H6.48781C5.19342 10.1778 4.1499 11.2345 4.1499 12.5289V15.0253C4.1499 16.3197 5.19342 17.3632 6.48781 17.3632H33.499C34.7934 17.3632 35.85 16.3197 35.85 15.0253V12.5289C35.85 11.2345 34.7934 10.1778 33.499 10.1778ZM24.6916 7.34876C25.4417 6.32356 27.054 6.4174 27.6454 7.58997C27.9266 8.14075 27.906 8.75989 27.5861 9.28874C27.2662 9.82017 26.7257 10.1285 26.1104 10.1362L22.6226 10.1594L24.6916 7.34876ZM12.3526 7.58481C12.9369 6.42626 14.5489 6.31641 15.3051 7.35134L17.3728 10.1594L13.8927 10.1362C12.599 10.1201 11.7507 8.76397 12.3526 7.58481Z" fill="#D679BC"/>
<path d="M6.38232 32.1302C6.38232 34.2698 8.12576 36.0002 10.2657 36.0002H29.7348C31.8744 36.0002 33.618 34.2698 33.618 32.1302V20.0049H6.38232V32.1302Z" fill="#D679BC"/>
</svg>
