<svg viewBox="0 0 20 16" xmlns="http://www.w3.org/2000/svg"><path d="m19.6877602 1.89293557c-.7241543.32133665-1.5019516.53856731-2.3197336.63620902.8346204-.4997817 1.4740094-1.29175871 1.7759011-2.23434272-.7928214.47089008-1.6604932.80239643-2.5653236.98011847-.7363531-.78488717-1.7863795-1.27492034-2.9480709-1.27492034-2.2298073 0-4.03818606 1.80764895-4.03818606 4.03875954 0 .31612352.0356056.62453163.10405385.92063678-3.35667507-.16869652-6.33258394-1.77657876-8.32451664-4.21975902-.34781929.59669358-.5469083 1.29045543-.5469083 2.03066617 0 1.40102568.71310252 2.63716041 1.79664927 3.36126262-.64144173-.01987694-1.26880598-.19301567-1.82964831-.50494269v.05103643c0 1.9570048 1.39195485 3.58881525 3.23969269 3.95993718-.33942617.09300204-.69563858.14158831-1.06415395.14158831-.26055167 0-.51333581-.02465805-.76028124-.07110694.51396138 1.60402452 2.00553893 2.77160672 3.77236916 2.80460582-1.38225845 1.0835467-3.12396145 1.7294521-5.01564587 1.7294521-.32581993 0-.64783427-.0194449-.9639578-.0575528 1.78763057 1.1462606 3.9101519 1.8154165 6.19104777 1.8154165 7.42848583 0 11.49117353-6.15419102 11.49117353-11.49117354 0-.17521292-.0038577-.34912257-.012303-.52240663.7915424-.57252605 1.4748199-1.28141746 2.0178419-2.09348426z" fill="#fff"/></svg>